<svg width="25" height="24" viewBox="0 0 25 24" fill="none" xmlns="http://www.w3.org/2000/svg">
<path d="M20.2252 9.53063L12.7252 17.0306C12.6556 17.1004 12.5728 17.1557 12.4818 17.1934C12.3907 17.2312 12.2931 17.2506 12.1946 17.2506C12.096 17.2506 11.9984 17.2312 11.9074 17.1934C11.8163 17.1557 11.7336 17.1004 11.664 17.0306L4.16396 9.53063C4.02323 9.3899 3.94417 9.19903 3.94417 9.00001C3.94417 8.80098 4.02323 8.61011 4.16396 8.46938C4.30469 8.32865 4.49556 8.24959 4.69459 8.24959C4.89361 8.24959 5.08448 8.32865 5.22521 8.46938L12.1946 15.4397L19.164 8.46938C19.2336 8.3997 19.3164 8.34442 19.4074 8.30671C19.4985 8.269 19.596 8.24959 19.6946 8.24959C19.7931 8.24959 19.8907 8.269 19.9818 8.30671C20.0728 8.34442 20.1555 8.3997 20.2252 8.46938C20.2949 8.53906 20.3502 8.62179 20.3879 8.71283C20.4256 8.80388 20.445 8.90146 20.445 9.00001C20.445 9.09855 20.4256 9.19613 20.3879 9.28718C20.3502 9.37822 20.2949 9.46095 20.2252 9.53063Z" fill="#1C1812"/>
</svg>
