<svg width="25" height="24" viewBox="0 0 25 24" fill="none" xmlns="http://www.w3.org/2000/svg">
<path d="M17.2252 12.5306L9.72521 20.0306C9.65553 20.1003 9.5728 20.1556 9.48176 20.1933C9.39071 20.231 9.29313 20.2504 9.19459 20.2504C9.09604 20.2504 8.99846 20.231 8.90741 20.1933C8.81637 20.1556 8.73364 20.1003 8.66396 20.0306C8.59428 19.9609 8.539 19.8782 8.50129 19.7872C8.46358 19.6961 8.44417 19.5985 8.44417 19.5C8.44417 19.4015 8.46358 19.3039 8.50129 19.2128C8.539 19.1218 8.59428 19.0391 8.66396 18.9694L15.6343 12L8.66396 5.03062C8.52323 4.88989 8.44417 4.69902 8.44417 4.5C8.44417 4.30097 8.52323 4.1101 8.66396 3.96937C8.80469 3.82864 8.99556 3.74958 9.19459 3.74958C9.39361 3.74958 9.58448 3.82864 9.72521 3.96937L17.2252 11.4694C17.2949 11.539 17.3503 11.6217 17.388 11.7128C17.4257 11.8038 17.4452 11.9014 17.4452 12C17.4452 12.0986 17.4257 12.1962 17.388 12.2872C17.3503 12.3783 17.2949 12.461 17.2252 12.5306Z" fill="#1C1812"/>
</svg>
