<svg width="25" height="24" viewBox="0 0 25 24" fill="none" xmlns="http://www.w3.org/2000/svg">
<path d="M15.7252 18.9694C15.7949 19.0391 15.8502 19.1218 15.8879 19.2128C15.9256 19.3039 15.945 19.4015 15.945 19.5C15.945 19.5985 15.9256 19.6961 15.8879 19.7872C15.8502 19.8782 15.7949 19.9609 15.7252 20.0306C15.6555 20.1003 15.5728 20.1556 15.4817 20.1933C15.3907 20.231 15.2931 20.2504 15.1946 20.2504C15.096 20.2504 14.9984 20.231 14.9074 20.1933C14.8164 20.1556 14.7336 20.1003 14.6639 20.0306L7.16395 12.5306C7.09422 12.461 7.0389 12.3783 7.00116 12.2872C6.96341 12.1962 6.94398 12.0986 6.94398 12C6.94398 11.9014 6.96341 11.8038 7.00116 11.7128C7.0389 11.6217 7.09422 11.539 7.16395 11.4694L14.6639 3.96937C14.8047 3.82864 14.9956 3.74958 15.1946 3.74958C15.3936 3.74958 15.5845 3.82864 15.7252 3.96937C15.8659 4.1101 15.945 4.30097 15.945 4.5C15.945 4.69902 15.8659 4.88989 15.7252 5.03062L8.75489 12L15.7252 18.9694Z" fill="#1C1812"/>
</svg>
