<svg width="25" height="24" viewBox="0 0 25 24" fill="none" xmlns="http://www.w3.org/2000/svg">
<path d="M20.2252 15.5306C20.1556 15.6004 20.0728 15.6557 19.9818 15.6934C19.8907 15.7312 19.7931 15.7506 19.6946 15.7506C19.596 15.7506 19.4984 15.7312 19.4074 15.6934C19.3163 15.6557 19.2336 15.6004 19.164 15.5306L12.1946 8.56031L5.22521 15.5306C5.08448 15.6714 4.89361 15.7504 4.69459 15.7504C4.49556 15.7504 4.30469 15.6714 4.16396 15.5306C4.02323 15.3899 3.94417 15.199 3.94417 15C3.94417 14.801 4.02323 14.6101 4.16396 14.4694L11.664 6.96938C11.7336 6.89964 11.8163 6.84433 11.9074 6.80658C11.9984 6.76884 12.096 6.74941 12.1946 6.74941C12.2931 6.74941 12.3907 6.76884 12.4818 6.80658C12.5728 6.84433 12.6556 6.89964 12.7252 6.96938L20.2252 14.4694C20.2949 14.539 20.3503 14.6217 20.388 14.7128C20.4257 14.8038 20.4452 14.9014 20.4452 15C20.4452 15.0986 20.4257 15.1962 20.388 15.2872C20.3503 15.3783 20.2949 15.461 20.2252 15.5306Z" fill="#1C1812"/>
</svg>
