<svg width="24" height="24" viewBox="0 0 24 24" fill="none" xmlns="http://www.w3.org/2000/svg">
<path d="M21.75 12C21.7469 14.3829 20.8726 16.6825 19.2917 18.4656C17.7109 20.2486 15.5326 21.3921 13.1671 21.6806C13.1145 21.6866 13.0611 21.6813 13.0107 21.6651C12.9602 21.649 12.9137 21.6223 12.8743 21.5869C12.8348 21.5514 12.8034 21.508 12.782 21.4596C12.7605 21.4111 12.7496 21.3586 12.75 21.3056V14.25H15C15.1028 14.2502 15.2045 14.2293 15.2989 14.1885C15.3933 14.1478 15.4783 14.088 15.5487 14.013C15.619 13.938 15.6732 13.8494 15.7078 13.7526C15.7424 13.6558 15.7568 13.5529 15.75 13.4503C15.7334 13.2574 15.6444 13.078 15.5009 12.9481C15.3574 12.8181 15.1701 12.7474 14.9765 12.75H12.75V10.5C12.75 10.1022 12.908 9.72062 13.1893 9.43932C13.4706 9.15801 13.8521 8.99998 14.25 8.99998H15.75C15.8528 9.0002 15.9545 8.97929 16.0489 8.93853C16.1433 8.89777 16.2283 8.83804 16.2987 8.76304C16.369 8.68805 16.4232 8.59939 16.4578 8.50258C16.4924 8.40577 16.5068 8.30288 16.5 8.20029C16.4834 8.0071 16.3941 7.82739 16.2502 7.69742C16.1063 7.56745 15.9185 7.49689 15.7246 7.49998H14.25C13.4543 7.49998 12.6912 7.81605 12.1286 8.37866C11.566 8.94127 11.25 9.70433 11.25 10.5V12.75H8.99996C8.89714 12.7498 8.79538 12.7707 8.70099 12.8114C8.60659 12.8522 8.52159 12.9119 8.45126 12.9869C8.38092 13.0619 8.32676 13.1506 8.29213 13.2474C8.2575 13.3442 8.24315 13.4471 8.24996 13.5497C8.26655 13.7429 8.35579 13.9226 8.49968 14.0525C8.64357 14.1825 8.8314 14.2531 9.02527 14.25H11.25V21.3075C11.2503 21.3604 11.2394 21.4128 11.218 21.4612C11.1967 21.5096 11.1653 21.5529 11.126 21.5884C11.0866 21.6238 11.0403 21.6505 10.9899 21.6667C10.9395 21.6829 10.8863 21.6883 10.8337 21.6825C8.40498 21.3867 6.1758 20.1899 4.5874 18.3289C2.99901 16.4679 2.16716 14.0785 2.25652 11.6334C2.44402 6.57091 6.54464 2.45529 11.6109 2.25841C12.9225 2.20761 14.231 2.42187 15.4579 2.88838C16.6848 3.35489 17.8051 4.06407 18.7516 4.9735C19.6981 5.88293 20.4515 6.97393 20.9667 8.18123C21.4819 9.38854 21.7483 10.6873 21.75 12Z" fill="#F7F7F6"/>
</svg>
