<svg width="72" height="40" viewBox="0 0 72 40" fill="none" xmlns="http://www.w3.org/2000/svg">
<path d="M56.8717 19.7298C58.5755 20.2756 60.2337 20.6622 61.8615 19.7146C62.5537 19.3129 63.1622 18.7898 63.8164 18.3274C65.3148 17.2813 66.8817 16.3489 68.6693 15.8865C68.829 15.8486 68.9887 15.8107 69.1485 15.7804C70.5556 15.5529 71.4684 16.311 71.5977 17.8043C71.7118 19.1688 71.4912 20.5106 71.1261 21.8068C70.6317 23.5958 70.0764 25.3621 69.4831 27.1208C68.5704 29.827 67.939 32.609 67.2925 35.3835C67.0871 36.278 66.8361 37.1573 66.5851 38.0367C66.5014 38.3247 66.3493 38.6052 66.1896 38.8629C65.6875 39.674 64.8813 39.8484 64.2043 39.1889C63.5806 38.5749 63.0405 37.8623 62.5613 37.1422C61.504 35.5578 60.7662 33.8219 60.1044 32.0405C59.9599 31.6463 59.785 31.2597 59.5796 30.8883C59.2297 30.2515 58.6972 29.8346 57.9898 29.6299C56.6435 29.2357 55.282 29.0614 53.8824 29.1751C53.7607 29.1826 53.639 29.213 53.4184 29.2585C53.7226 29.4631 53.9432 29.6072 54.1638 29.7663C54.4453 29.971 54.7419 30.1681 55.0005 30.4107C55.8981 31.2673 56.0882 32.2148 55.533 33.3216C54.2703 35.8611 52.3307 37.6728 49.6836 38.772C47.8657 39.5224 46.352 39.0676 44.9296 37.8699C43.4844 36.6494 42.2978 35.2243 41.3698 33.5793C41.1492 33.1927 40.8754 33.0639 40.4494 33.1321C38.3501 33.458 36.2431 33.6172 34.1209 33.5566C34.0372 33.5566 33.9612 33.5566 33.8547 33.5642C33.9079 34.0038 33.9916 34.4283 33.9916 34.8529C33.9916 35.5882 33.9536 36.331 33.9003 37.0663C33.8395 37.8623 33.9307 38.6128 34.3415 39.3102C34.3719 39.3557 34.3719 39.4163 34.41 39.5376C34.2502 39.5148 34.1437 39.5073 34.0448 39.4769C32.6985 39.151 31.5499 38.4536 30.5231 37.5439C30.1275 37.1952 30.1123 37.2104 29.8613 37.688C29.4886 38.3929 29.23 39.1282 29.3289 40C29.1615 39.9469 29.0398 39.9394 28.9562 39.8787C28.3629 39.4466 27.7163 39.06 27.1991 38.5445C25.6093 36.9451 24.6281 34.9969 24.1869 32.791C24.1109 32.3968 23.9283 32.2148 23.548 32.1239C20.3305 31.3431 17.1054 30.5623 13.9031 29.7284C11.8341 29.1902 9.9249 28.2351 7.97765 27.3785C6.15211 26.575 4.30375 25.8018 2.47061 25.0134C1.28401 24.5055 0.432088 23.6868 0.0821928 22.4057C-0.25249 21.1852 0.462514 20.1695 1.72518 20.0785C2.18917 20.0482 2.65316 20.0785 3.15518 20.0785C3.0487 19.8359 2.91178 19.6009 2.83572 19.3508C2.68359 18.8277 2.49343 18.2971 2.44779 17.7589C2.37933 17.0236 2.73683 16.4399 3.36056 16.0457C3.60396 15.8865 3.87779 15.7121 4.15163 15.6818C5.08721 15.5605 5.81743 15.0071 6.63132 14.6281C8.2743 13.8701 9.94011 13.1651 11.5907 12.4222C13.3706 11.6187 15.1353 10.7848 16.9152 9.98887C19.6915 8.74567 22.6048 7.98762 25.6245 7.62376C25.9668 7.58586 26.1113 7.3736 26.1722 7.07796C26.408 5.90299 26.6438 4.72801 26.8644 3.55304C26.9328 3.1816 26.9633 2.81015 27.0393 2.43871C27.0622 2.325 27.1991 2.24162 27.2751 2.14307C27.3588 2.23404 27.4805 2.30984 27.5261 2.41597C27.625 2.61306 27.6555 2.84806 27.7543 3.03757C28.0053 3.51514 28.4769 3.59852 28.8573 3.2195C29.0779 2.99966 29.268 2.72677 29.3973 2.44629C29.6255 1.96872 29.7929 1.46841 29.9982 0.983256C30.0591 0.846808 30.1884 0.748261 30.2873 0.634554C30.3633 0.763422 30.447 0.88471 30.5231 1.01358C30.5459 1.05148 30.5307 1.11212 30.5611 1.15003C30.6524 1.28648 30.7513 1.51389 30.8654 1.52905C31.0327 1.54421 31.2609 1.44567 31.375 1.3168C31.626 1.02116 31.8162 0.680037 32.0291 0.354076C32.09 0.263111 32.128 0.156984 32.2117 0.0963399C32.2802 0.0356961 32.4095 -0.0173673 32.4703 0.00537415C32.5312 0.0356961 32.5768 0.172145 32.5768 0.263111C32.5692 0.41472 32.5083 0.558749 32.4703 0.710359C32.4019 0.990837 32.4171 1.29406 32.6757 1.43809C32.8582 1.53663 33.1853 1.57453 33.3603 1.47599C33.8699 1.19551 34.3339 0.831647 34.8283 0.513266C34.9272 0.445042 35.0717 0.437462 35.1934 0.399559C35.2086 0.513266 35.2543 0.642135 35.2314 0.748261C35.163 1.1197 35.0337 1.50631 35.376 1.80195C35.7259 2.10517 36.1138 1.95356 36.4713 1.79437C36.806 1.65034 37.1102 1.44567 37.4373 1.29406C37.5362 1.24857 37.6731 1.27131 37.7948 1.26373C37.7872 1.36986 37.7872 1.47599 37.7644 1.58211C37.7187 1.78679 37.6275 1.98388 37.6123 2.18855C37.5818 2.61306 37.772 2.9087 38.1979 2.97692C38.5631 3.02999 38.9358 2.97692 39.3085 2.96176C39.4378 2.96176 39.5595 2.90112 39.6888 2.89354C39.8866 2.88596 39.9702 2.99208 39.9246 3.1816C39.9094 3.23466 39.879 3.28772 39.8561 3.34837C39.5443 4.18222 39.879 4.66737 40.7841 4.67495C41.1644 4.67495 41.5372 4.67495 41.9099 4.67495C42.2141 4.67495 42.275 4.79624 42.1076 5.04639C41.8871 5.37994 41.6741 5.72106 41.9023 6.11524C42.1381 6.53217 42.5716 6.49427 42.9748 6.49427C43.1725 6.49427 43.3779 6.46394 43.5757 6.47153C43.6822 6.47153 43.8343 6.50185 43.8875 6.57007C43.9256 6.62314 43.8723 6.78233 43.8191 6.87329C43.4007 7.58586 43.4996 7.9194 44.2603 8.29084C44.4124 8.36665 44.6254 8.41213 44.4124 8.73809C44.709 8.60164 44.9144 8.48793 45.1274 8.41213C46.2227 8.00278 47.3104 7.53279 48.4286 7.19925C50.5051 6.58523 52.4676 6.91119 54.2931 8.10133C57.0695 9.91306 58.857 12.3767 59.3058 15.697C59.4959 17.0766 59.146 18.3274 57.9746 19.2067C57.6704 19.4342 57.2977 19.5706 56.9021 19.7677L56.8717 19.7298ZM10.7312 24.0507C10.5334 24.2023 10.579 24.3766 10.7084 24.5434C10.8605 24.7405 11.0202 24.93 11.1952 25.0968C11.758 25.6501 12.8382 25.3318 13.0359 24.5965C12.7849 24.7102 12.5035 24.8315 12.222 24.9603L12.1612 24.8694C12.5795 24.5813 12.8534 24.2023 12.9446 23.702C13.1196 22.7696 12.8305 21.9281 12.3589 21.1549C11.6059 19.9117 10.5334 18.9869 9.30878 18.2289C8.8676 17.956 8.40361 17.721 7.94723 17.4632C8.45686 18.0393 9.01213 18.5397 9.52176 19.0854C10.2748 19.8966 11.0202 20.7153 11.4766 21.7462C11.7124 22.2768 11.8874 22.8302 11.758 23.4215C11.6516 23.9142 11.256 24.1492 10.7312 24.0507C11.0506 23.6792 11.1267 23.2471 10.9746 22.7999C10.8453 22.4133 10.7008 22.0191 10.4878 21.678C9.4533 19.9799 8.14499 18.5018 6.58568 17.2661C6.16733 16.9402 5.68052 16.6673 5.1861 16.4626C4.53195 16.1897 3.78652 16.4399 3.55072 16.9402C3.99189 16.6521 4.02232 16.6445 4.52434 16.8416C4.72971 16.925 4.94269 17.0084 5.12525 17.1297C6.75302 18.1834 8.06132 19.5403 9.00452 21.2383C9.08058 21.3748 9.14143 21.5112 9.20989 21.6477C9.27074 21.7765 9.3316 21.913 9.38484 22.0494C8.08414 20.8062 7.04206 19.3204 5.52078 18.3274C6.28903 19.1461 7.0801 19.9269 7.80271 20.7683C8.66984 21.7765 9.46851 22.8302 10.2976 23.8687C10.4041 24.0052 10.5106 24.1644 10.7236 24.0507H10.7312ZM28.9638 16.4626C28.9638 16.4626 28.9181 16.4778 28.9029 16.4853C28.979 16.7052 29.0702 16.9174 29.1159 17.1448C29.3289 18.1076 29.5647 19.0627 29.732 20.033C29.8005 20.4499 29.8613 20.5257 30.2568 20.3211C31.4739 19.6843 32.7441 19.2067 34.0753 18.8959C35.376 18.5851 36.6995 18.4335 38.0306 18.6609C39.3541 18.8884 40.0767 19.9269 39.8485 21.2459C39.4834 23.3912 38.4718 25.2181 37.019 26.8175C36.1366 27.7803 35.0565 28.1441 33.8014 27.894C32.8735 27.712 31.9455 27.4619 31.0403 27.189C30.2797 26.9616 29.5342 26.6432 28.7812 26.3855C28.6595 26.34 28.4313 26.3324 28.3781 26.4006C27.9749 26.9161 27.6022 27.4619 27.2143 28.0001C27.2523 28.0304 27.2827 28.0532 27.3208 28.0835C27.7467 27.5604 28.1727 27.0374 28.5986 26.5219C27.9065 28.3185 26.3852 29.5162 25.3203 31.0854C25.8223 30.9641 26.1798 30.676 26.446 30.2515C26.7579 29.7436 27.9597 28.5838 28.5226 28.3412C27.8304 29.2964 27.1382 30.2591 26.4004 31.2749C26.5753 31.1991 26.7046 31.1536 26.8264 31.0854C27.3816 30.7518 27.7848 30.2667 28.1575 29.7436C28.3476 29.4783 28.5834 29.2433 28.8268 29.0235C28.8953 28.9628 29.055 28.9931 29.1691 28.9856C29.1539 29.0917 29.1691 29.2206 29.1235 29.3039C29.0094 29.5086 28.8801 29.7057 28.7356 29.8876C28.3781 30.35 28.0053 30.8125 27.6402 31.2673C27.6555 31.2976 27.6783 31.3203 27.6935 31.3507C28.0206 31.146 28.3933 30.9792 28.6747 30.7215C28.9714 30.4486 29.1843 30.0847 29.4506 29.7739C29.6331 29.5617 29.8233 29.357 30.0363 29.1675C30.0895 29.1144 30.2568 29.1144 30.3101 29.1675C30.3633 29.2054 30.3633 29.3646 30.3253 29.4404C30.2416 29.6223 30.1275 29.7891 30.0134 29.9483C29.8081 30.2515 29.5951 30.5547 29.3669 30.8883C29.8461 30.9868 30.1047 30.7821 30.3253 30.4789C30.5611 30.1454 30.7741 29.7891 31.0479 29.4859C31.1316 29.3873 31.375 29.4328 31.5499 29.4101C31.5195 29.5541 31.5347 29.7284 31.4587 29.8422C31.2153 30.2136 30.9414 30.5547 30.6752 30.9186C31.1088 31.0854 31.3446 31.002 31.6184 30.6002C31.839 30.2818 32.0444 29.9483 32.2954 29.6602C32.379 29.5617 32.5996 29.592 32.7594 29.5617C32.7365 29.7057 32.7594 29.8801 32.6909 29.9938C32.4323 30.3955 32.1432 30.7821 31.8618 31.1763C32.1585 31.381 32.4019 31.2749 32.5768 31.0702C32.805 30.7897 32.9952 30.4789 33.2081 30.1833C33.3146 30.0317 33.4059 29.8497 33.5504 29.7436C33.6569 29.6602 33.8395 29.683 33.984 29.6602C33.9688 29.7967 33.9916 29.9559 33.9307 30.062C33.5961 30.6002 33.2462 31.1157 32.8887 31.6539C33.0712 31.8889 33.2766 31.7903 33.4135 31.6236C33.7634 31.1839 34.0829 30.7215 34.41 30.2667C34.5164 30.115 34.5925 29.9255 34.7294 29.8118C34.8207 29.736 34.9956 29.7512 35.1402 29.7284C35.1402 29.8573 35.1858 30.0165 35.1326 30.1075C34.7751 30.6987 34.4023 31.2824 34.022 31.8586C33.946 31.9798 33.8471 32.086 33.7634 32.1997C33.7862 32.2224 33.8014 32.2452 33.8243 32.2755C33.9384 32.23 34.0601 32.1997 34.1665 32.139C34.661 31.8434 35.0641 31.4568 35.3227 30.9337C35.4901 30.6078 35.6422 30.2818 35.8247 29.9634C35.9236 29.7815 36.0758 29.6072 36.3039 29.736C36.5474 29.8801 36.38 30.0696 36.2887 30.2212C35.8856 30.9034 35.4825 31.5781 35.0489 32.2982C35.2695 32.1769 35.4901 32.086 35.6726 31.9571C36.1518 31.6084 36.4561 31.1233 36.6995 30.5926C36.8288 30.3197 36.9809 30.0468 37.1711 29.8118C37.2395 29.7284 37.4525 29.7588 37.597 29.736C37.597 29.8649 37.597 29.9938 37.5894 30.115C37.5894 30.1681 37.5286 30.2136 37.4982 30.2591C37.0646 30.9186 36.631 31.5781 36.1975 32.2452C36.4637 32.1618 36.7223 32.0405 36.9505 31.8737C37.4677 31.4871 37.7568 30.9337 38.0458 30.3804C38.1751 30.1302 38.3196 29.8876 38.5022 29.6754C38.5631 29.6072 38.7532 29.6451 38.8825 29.6299C38.8825 29.7436 38.9282 29.8952 38.8749 29.971C38.4033 30.6533 37.9089 31.3203 37.4221 31.995C37.3841 32.0557 37.3384 32.1087 37.3004 32.1694C37.3308 32.1997 37.3536 32.2376 37.3841 32.2679C37.7187 32.0481 38.1219 31.8813 38.3729 31.5932C38.7684 31.1384 39.0651 30.6002 39.4074 30.0923C39.5519 29.8801 39.6888 29.6602 39.8561 29.4783C39.917 29.4101 40.0691 29.4252 40.1756 29.4101C40.1756 29.5162 40.2213 29.6526 40.1756 29.7284C39.7725 30.3728 39.3465 31.002 38.9206 31.6311C38.8293 31.7676 38.6924 31.8737 38.5783 31.9874C38.6011 32.0178 38.6315 32.0557 38.6543 32.086C38.9129 31.9344 39.1868 31.8131 39.4226 31.6311C40.0387 31.1384 40.4038 30.4713 40.7157 29.7663C40.7993 29.5844 40.9439 29.4176 41.096 29.2812C41.1568 29.2206 41.3014 29.2585 41.4155 29.2509C41.4155 29.3494 41.4459 29.4555 41.4155 29.5465C41.3698 29.6905 41.2938 29.827 41.2101 29.9559C40.7765 30.5926 40.3353 31.2218 39.8637 31.8965C40.0995 31.76 40.3201 31.6539 40.5103 31.5174C41.1644 31.0474 41.5372 30.3728 41.8642 29.6602C41.9631 29.4555 42.0924 29.2509 42.2446 29.0765C42.3054 29.0007 42.4728 29.0159 42.5868 28.9931C42.5868 29.1068 42.6401 29.2357 42.5945 29.3191C42.4119 29.6905 42.2293 30.062 42.0012 30.3955C41.7045 30.8352 41.3622 31.237 41.0351 31.6539C41.0504 31.6766 41.0656 31.6994 41.0884 31.7221C41.3546 31.5478 41.6437 31.3962 41.8947 31.1915C42.4804 30.6987 42.7846 30.0241 43.0661 29.3343C43.1497 29.122 43.2942 28.9325 43.4464 28.7581C43.4996 28.6975 43.6517 28.7127 43.7582 28.6899C43.7582 28.7885 43.7963 28.9022 43.7582 28.9856C43.4464 29.7663 43.0661 30.5017 42.4804 31.1157C42.3891 31.2066 42.2978 31.3052 42.2141 31.3962L42.2826 31.4795C42.5032 31.3355 42.7314 31.2066 42.9367 31.0399C43.5605 30.5244 43.9256 29.827 44.1994 29.0765C44.2831 28.8491 44.4276 28.6444 44.5797 28.4549C44.633 28.3943 44.7851 28.417 44.8916 28.4019C44.8916 28.5004 44.9372 28.6141 44.8992 28.6899C44.6178 29.2433 44.3363 29.7967 44.0321 30.3425C43.8952 30.585 43.705 30.7973 43.5376 31.0323C43.5605 31.055 43.5833 31.0778 43.6061 31.1005C43.8039 30.9489 44.0245 30.8049 44.207 30.6381C44.7927 30.0923 45.1122 29.3873 45.3936 28.6596C45.4697 28.4701 45.5838 28.2882 45.7131 28.1214C45.7587 28.0683 45.9261 28.0456 45.9945 28.0911C46.0554 28.129 46.0858 28.2654 46.0858 28.3564C46.0858 28.4398 46.0249 28.5307 45.9793 28.6141C45.5914 29.3191 45.1958 30.0165 44.8003 30.7139C45.0741 30.532 45.4088 30.3425 45.5914 30.0544C45.9641 29.4783 46.2607 28.8491 46.5878 28.2427C46.6563 28.1062 46.7019 27.947 46.8084 27.8485C46.8921 27.7651 47.0442 27.7575 47.1735 27.7196C47.1887 27.8485 47.2648 28.0001 47.2115 28.0911C46.8312 28.7809 46.4357 29.448 46.0326 30.1302C45.9945 30.1984 45.9413 30.2591 45.888 30.3273C45.9185 30.3576 45.9489 30.3804 45.9793 30.4107C46.276 30.1378 46.6411 29.9104 46.854 29.592C47.1887 29.0765 47.4245 28.4928 47.706 27.947C47.7972 27.7727 47.8733 27.5832 48.0026 27.4391C48.0787 27.3558 48.246 27.3633 48.3753 27.3254C48.3753 27.4391 48.4058 27.5756 48.3601 27.6741C48.033 28.3791 47.6908 29.0765 47.3256 29.8422C47.5995 29.592 47.9037 29.4101 48.0711 29.1372C48.3905 28.6065 48.6187 28.0304 48.8926 27.4695C48.961 27.3254 49.0143 27.1587 49.1208 27.045C49.1892 26.9692 49.349 26.9767 49.4631 26.9464C49.4859 27.0525 49.5467 27.1814 49.5163 27.2648C49.3033 27.7575 49.0675 28.2427 48.8393 28.7278C48.7633 28.887 48.6568 29.0386 48.5655 29.1902C49.0751 28.9931 49.4174 28.6293 49.6608 28.182C49.8586 27.8106 50.0031 27.4088 50.1704 27.0222C50.2769 26.7721 50.4062 26.5674 50.7561 26.5825C50.855 27.2951 50.353 27.7954 50.1172 28.4473C50.7029 28.0911 51.0528 27.6287 51.2506 27.0601C51.3266 26.8403 51.4027 26.6129 51.5396 26.4234C51.6081 26.3324 51.7906 26.3248 51.9275 26.2793C51.9427 26.393 51.996 26.5295 51.958 26.628C51.8134 26.9843 51.6385 27.333 51.4711 27.6741C51.4103 27.803 51.3342 27.9167 51.2277 28.1062C51.6993 27.8864 51.958 27.568 52.1481 27.1966C52.3078 26.8858 52.4219 26.5446 52.6045 26.2414C52.673 26.1277 52.8783 26.0064 52.9772 26.0292C53.213 26.0898 53.0989 26.2945 53.0305 26.4309C52.8023 26.9085 52.5665 27.3861 52.3307 27.8788C52.8707 27.6741 53.1293 27.242 53.3271 26.7569C53.426 26.5143 53.5021 26.2642 53.6314 26.0443C53.677 25.9685 53.8367 25.9534 53.9508 25.9155C53.9737 26.014 54.0345 26.1201 54.0117 26.2111C53.966 26.4006 53.8976 26.5977 53.8063 26.7721C53.639 27.0904 53.4488 27.3861 53.2358 27.7499C53.7531 27.5756 54.0573 27.2496 54.2703 26.8327C54.3996 26.5825 54.4757 26.3021 54.6202 26.0671C54.681 25.9761 54.8636 25.9609 54.9929 25.9079C55.0157 26.014 55.0918 26.1353 55.0614 26.2187C54.9549 26.5295 54.818 26.8251 54.6658 27.1132C54.5593 27.3179 54.4224 27.4922 54.2551 27.7499C54.7723 27.5756 55.0842 27.2951 55.2667 26.8782C55.3732 26.6356 55.4417 26.3627 55.5786 26.1277C55.6395 26.0216 55.7992 25.9837 55.9133 25.9079C55.9437 26.0292 56.0274 26.1732 55.9818 26.2642C55.7688 26.7645 55.5254 27.2496 55.282 27.7499C55.6471 27.6438 55.9361 27.3937 56.1263 27.0298C56.2708 26.7493 56.3697 26.4461 56.5142 26.1656C56.5522 26.0898 56.6815 26.0519 56.7728 25.9988C56.8261 26.0898 56.9325 26.2035 56.9173 26.2717C56.8261 26.5825 56.6968 26.8858 56.5674 27.189C56.4838 27.3709 56.3697 27.5301 56.2708 27.7045C56.3088 27.7348 56.3545 27.7651 56.3925 27.803C56.6207 27.568 56.8793 27.3482 57.0695 27.0904C57.2216 26.8858 57.2748 26.6129 57.4118 26.4006C57.4726 26.3096 57.6476 26.2945 57.7769 26.2414C57.8149 26.3703 57.8681 26.4916 57.8757 26.6204C57.8757 26.6735 57.8149 26.7417 57.7769 26.8024C57.5182 27.1966 57.252 27.5907 56.9934 27.9774C57.0162 28.0077 57.0314 28.0304 57.0543 28.0607C57.3053 27.8864 57.5943 27.7424 57.7921 27.5149C58.0127 27.2648 58.1268 26.9312 58.3169 26.6508C58.3778 26.5598 58.5299 26.5295 58.644 26.4688C58.6896 26.5825 58.7961 26.7114 58.7733 26.81C58.7429 26.9767 58.6516 27.1359 58.5527 27.2875C58.3245 27.6362 58.0887 27.9774 57.8149 28.3791C58.4767 28.1365 58.8646 27.6817 59.1917 27.1587C59.2981 26.9919 59.321 26.6811 59.6176 26.8327C59.9219 26.9843 59.7241 27.2117 59.6328 27.4012C59.5568 27.5604 59.4655 27.712 59.359 27.8561C59.1536 28.1365 58.933 28.4019 58.7048 28.6823C58.7581 28.6975 58.7809 28.7127 58.8037 28.7127C58.8494 28.6975 58.8874 28.6823 58.933 28.6596C59.5187 28.3412 60.0208 27.9243 60.4239 27.3861C60.4771 27.3179 60.5912 27.2951 60.6825 27.2496C60.7129 27.3558 60.789 27.477 60.7662 27.5528C60.6749 27.7954 60.5608 28.0304 60.4315 28.2427C60.2794 28.4928 60.0968 28.7202 59.8914 29.0159C60.4771 28.7581 60.827 28.4019 61.078 27.8712C61.1237 27.7803 61.2454 27.7272 61.3291 27.659C61.3671 27.7878 61.4584 27.9167 61.4355 28.038C61.4051 28.2275 61.2986 28.4094 61.2302 28.5914C61.2606 28.6065 61.291 28.6217 61.3214 28.6444C61.4508 28.4549 61.5725 28.2578 61.7246 28.0911C61.7854 28.0304 61.9224 28.038 62.0212 28.0153C62.0289 28.1062 62.0593 28.2048 62.0441 28.2882C62.006 28.4398 61.9376 28.5838 61.8843 28.7354L61.9604 28.7657C62.1658 28.5762 62.3787 28.3791 62.5841 28.1896C62.6222 28.2199 62.6602 28.2502 62.6906 28.2806C62.4852 28.7051 62.2799 29.122 62.0745 29.5541C63.0101 29.1599 64.1967 27.2799 63.9076 26.3475C63.8011 26.6659 63.7023 26.9464 63.611 27.2193C63.5958 27.2193 63.573 27.2117 63.5577 27.2041C63.5349 26.9009 63.5121 26.5901 63.4893 26.2869C63.4589 26.2869 63.4284 26.2869 63.3904 26.2869C63.2915 26.5143 63.1926 26.7342 63.0785 27.007C63.0177 26.6811 62.972 26.4234 62.9188 26.158C62.8884 26.158 62.8656 26.158 62.8351 26.158C62.7819 26.3627 62.7286 26.5674 62.6678 26.7721C62.5765 26.5067 62.5004 26.2566 62.4168 26.0064C62.394 26.014 62.3635 26.0216 62.3407 26.0292C62.3027 26.2338 62.2646 26.4385 62.2266 26.6432C62.1277 26.5674 62.1277 26.4992 62.1049 26.4385C62.0441 26.2793 61.968 26.1277 61.8995 25.9685C61.8463 26.1277 61.8007 26.2793 61.7474 26.4385C61.7474 26.4537 61.717 26.4537 61.6713 26.484C61.6257 26.3172 61.6029 26.158 61.542 26.0064C61.5116 25.923 61.4127 25.87 61.3519 25.8018C61.3062 25.8776 61.2378 25.9382 61.215 26.0216C61.1845 26.1201 61.1921 26.2263 61.1845 26.4082C61.0248 26.0747 60.9107 25.8321 60.789 25.5819C60.751 25.5971 60.7129 25.6047 60.6749 25.6198C60.6293 25.7714 60.5912 25.923 60.5304 26.1353C60.4011 25.7866 60.4619 25.4227 60.0892 25.2711C60.0284 25.5137 59.9751 25.7335 59.9219 25.9458C59.823 25.7487 59.8002 25.5592 59.7317 25.3848C59.7089 25.3166 59.6024 25.256 59.5263 25.2408C59.4883 25.2408 59.4046 25.3318 59.3742 25.4C59.321 25.5137 59.2905 25.6426 59.2373 25.8397C59.1764 25.7108 59.146 25.6653 59.1308 25.6122C59.0623 25.4152 59.0167 25.2029 58.9254 25.0134C58.8874 24.9376 58.7733 24.8921 58.6896 24.839C58.644 24.9148 58.5907 24.9831 58.5603 25.0664C58.5071 25.1953 58.4614 25.3393 58.4158 25.4682C58.3854 25.4682 58.3473 25.4682 58.3169 25.4682C58.2713 25.2787 58.2561 25.0816 58.1724 24.9148C58.1115 24.786 57.9594 24.7026 57.8453 24.604C57.7769 24.7026 57.7008 24.8011 57.6476 24.9073C57.6019 24.9982 57.5715 25.1119 57.5106 25.2939C57.3509 24.8315 57.2292 24.46 57.0999 24.0886C57.0695 24.0886 57.039 24.0886 57.0086 24.0886C56.9173 24.316 56.8261 24.551 56.712 24.8239C56.6131 24.4752 56.5218 24.1795 56.4381 23.8839C56.4077 23.8839 56.3849 23.8991 56.3545 23.8991C56.3392 24.0658 56.3316 24.2326 56.3164 24.3994H56.2708C56.1415 24.0507 56.0122 23.6944 55.8829 23.3457C55.8677 23.3533 55.8448 23.3608 55.8296 23.3684C55.7764 23.7929 55.7307 24.2174 55.6775 24.6419C55.6471 24.6419 55.609 24.6419 55.5786 24.6419C55.4797 24.0886 55.4189 23.52 55.0233 22.9742C54.9397 23.5125 54.8636 23.9673 54.7952 24.4297C54.5137 23.6716 54.4224 22.8757 54.103 22.1555C54.0573 22.1707 54.0193 22.1783 53.9737 22.1934C54.0421 22.4815 54.103 22.7696 54.1714 23.0349C54.0878 23.3912 54.0041 23.755 53.8976 24.1871C53.677 23.6337 53.7987 23.0576 53.3651 22.5497C53.2739 23.0425 53.1978 23.4442 53.1065 23.8991C52.9164 23.376 52.962 22.8226 52.5056 22.383C52.4448 22.8454 52.3991 23.2471 52.3459 23.6413C52.3155 23.6413 52.2774 23.6413 52.247 23.6413C52.1861 23.3078 52.1405 22.9742 52.0644 22.6483C51.996 22.3223 51.9047 22.0039 51.821 21.6856C51.7906 21.6856 51.7602 21.7007 51.7374 21.7083C51.6689 22.2617 51.6005 22.815 51.532 23.3684C51.2734 22.7468 51.357 22.0646 50.9463 21.4354C50.8778 22.0722 50.8094 22.618 50.7485 23.1713C50.7105 23.1713 50.6801 23.1713 50.642 23.1713C50.5736 22.815 50.5127 22.4588 50.4215 22.1101C50.391 21.9812 50.2769 21.8675 50.2085 21.7462C50.14 21.8599 50.0411 21.9736 50.0031 22.1025C49.9346 22.3602 49.9118 22.6331 49.8662 22.8909C49.7749 22.8302 49.7597 22.7771 49.7445 22.7241C49.6532 22.2768 49.5771 21.822 49.4707 21.3823C49.4478 21.2914 49.3261 21.2307 49.2501 21.1549C49.1968 21.2459 49.1208 21.3293 49.1055 21.4202C49.0599 21.7614 49.0371 22.1025 48.9991 22.4436C48.8393 22.1252 48.7709 21.7993 48.672 21.4809C48.6339 21.3596 48.5199 21.2535 48.4362 21.1398C48.3753 21.2535 48.2764 21.3596 48.2536 21.4809C48.2004 21.731 48.1852 21.9964 48.1547 22.2541C47.9798 21.7765 47.8961 21.3065 47.7896 20.8441C47.7668 20.7456 47.6679 20.6622 47.6071 20.5712C47.5386 20.6698 47.4245 20.7532 47.4017 20.8593C47.3409 21.0715 47.3332 21.299 47.2952 21.5188C47.2724 21.6401 47.2344 21.7614 47.2039 21.8826C47.067 21.443 46.9986 21.0109 46.8921 20.5864C46.8388 20.3817 46.6943 20.1998 46.5954 20.0027C46.5118 20.2149 46.4053 20.4272 46.3444 20.647C46.2912 20.8441 46.276 21.0564 46.2455 21.2686L46.1923 21.2459C46.0326 20.6546 45.8728 20.0558 45.6903 19.3811C45.1122 19.7904 45.4773 20.3893 45.1882 20.8441C45.1426 20.6698 45.1046 20.5409 45.0741 20.412C44.9448 19.889 44.8231 19.3583 44.6786 18.8429C44.6482 18.7292 44.5265 18.6458 44.4428 18.5472C44.4048 18.6685 44.3363 18.7898 44.3363 18.9111C44.3211 19.4114 44.3363 19.9193 44.3363 20.4272H44.2222C44.0321 19.798 43.8495 19.1613 43.6441 18.4714C43.1193 18.9566 43.454 19.5479 43.203 20.0709C43.0356 19.5175 42.8835 19.0096 42.7238 18.5169C42.7009 18.4411 42.6249 18.3805 42.5716 18.3122C42.4956 18.3805 42.3891 18.4259 42.351 18.5093C42.3054 18.6079 42.3206 18.7367 42.3206 18.858C42.3206 19.1385 42.3206 19.419 42.3206 19.6995C42.2902 19.6995 42.2522 19.6995 42.2217 19.707C42.0012 18.9793 41.7806 18.2592 41.5448 17.4632C41.0884 18.0924 41.4155 18.7671 41.1797 19.4342C41.1112 19.2219 41.0808 19.1006 41.0427 18.9793C40.8982 18.5472 40.7537 18.1151 40.594 17.6831C40.5711 17.6148 40.4723 17.5694 40.4114 17.5087C40.3582 17.5769 40.2745 17.6376 40.2517 17.7134C40.2213 17.8347 40.2365 17.9711 40.2213 18.1C40.1984 18.4259 40.168 18.7519 40.1376 19.1613C39.917 18.4942 39.7268 17.9256 39.5291 17.3647C39.4986 17.2813 39.4074 17.2282 39.3389 17.16C39.2781 17.2358 39.1868 17.3116 39.164 17.395C39.1335 17.5011 39.1487 17.63 39.1487 17.7437C39.1487 18.0166 39.1487 18.2895 39.1487 18.5624C38.9053 18.1151 38.738 17.6527 38.5631 17.1979C38.525 17.1069 38.4337 17.0387 38.3653 16.9553C38.3044 17.0539 38.2056 17.1448 38.1827 17.251C38.1523 17.395 38.1751 17.5542 38.1675 17.7058C38.1599 17.8802 38.1447 18.0545 38.1295 18.2289C37.8937 17.8271 37.7492 17.4177 37.5818 17.0236C37.5362 16.9174 37.4221 16.8492 37.346 16.7582C37.2928 16.8719 37.2015 16.9857 37.1939 17.1069C37.1711 17.4102 37.1939 17.7058 37.1939 18.009H37.1102C36.8972 17.4784 36.6767 16.9402 36.4409 16.3489C35.9845 16.8492 36.4104 17.395 36.1746 17.9105C36.0073 17.5466 35.878 17.2358 35.7259 16.9402C35.6498 16.7886 35.5281 16.6597 35.4216 16.5157C35.3836 16.7128 35.3227 16.9023 35.3075 17.0994C35.2999 17.3192 35.3379 17.539 35.3531 17.7664C35.3227 17.7664 35.2923 17.774 35.2619 17.7816C35.1934 17.6527 35.1173 17.5163 35.0565 17.3874C34.95 17.1524 34.8663 16.9098 34.7446 16.6824C34.7066 16.6142 34.5849 16.5839 34.5088 16.5308C34.4708 16.6066 34.4023 16.69 34.4023 16.7658C34.4023 16.9553 34.4404 17.1373 34.4556 17.3268C34.4632 17.4556 34.4556 17.5769 34.4556 17.7058C34.4176 17.7058 34.3871 17.7134 34.3491 17.721C34.197 17.395 34.0524 17.0615 33.8851 16.7431C33.8471 16.6673 33.733 16.6294 33.6569 16.5763C33.6265 16.6597 33.5732 16.7355 33.5656 16.8189C33.558 17.1069 33.5656 17.3874 33.5656 17.6755C33.5352 17.6755 33.4972 17.6906 33.4668 17.6906C33.307 17.3571 33.1625 17.016 32.9875 16.69C32.9419 16.6066 32.8278 16.5536 32.7441 16.4853C32.7061 16.5839 32.6529 16.6824 32.6453 16.781C32.63 17.0463 32.6453 17.3192 32.6453 17.5845C32.4627 17.3571 32.3714 17.1145 32.2497 16.8947C32.1585 16.7355 32.0139 16.6066 31.8998 16.4626C31.8618 16.637 31.8086 16.8113 31.7857 16.9932C31.7629 17.1752 31.7857 17.3647 31.7857 17.5542C31.5651 17.2131 31.4206 16.8719 31.2609 16.5308C31.2305 16.4626 31.1316 16.4323 31.0631 16.3868C31.0327 16.455 30.9718 16.5232 30.9642 16.5915C30.9566 16.8644 30.9642 17.1448 30.9642 17.4935C30.6524 17.0994 30.6828 16.5384 30.1427 16.3565C30.1808 16.7128 30.2112 17.0387 30.2492 17.4405C29.9982 17.0311 29.7776 16.6824 29.5571 16.3262C29.519 16.3413 29.4886 16.3641 29.4506 16.3792C29.443 16.6066 29.4277 16.8416 29.4125 17.1676C29.23 16.8719 29.1083 16.6673 28.9866 16.4702V16.455L28.9638 16.4626ZM10.3965 18.0697C10.4802 18.1455 10.5638 18.2137 10.6475 18.2895C11.3017 18.858 11.9938 19.3962 12.61 20.0027C13.3858 20.7607 14.0932 21.5794 14.329 22.6938C14.6104 24.0507 14.116 25.1498 12.9294 25.5668C12.473 25.726 11.9254 25.7942 11.4462 25.7335C9.70431 25.4985 8.04611 24.9073 6.41073 24.2705C6.36509 24.2478 6.33467 24.1871 6.2586 24.0961C7.54409 24.3842 8.76872 24.6647 9.99335 24.9376C10.0086 24.8997 10.0238 24.8618 10.039 24.8239C9.87926 24.6192 9.70431 24.4373 9.575 24.2174C9.30878 23.7626 8.91324 23.5504 8.39601 23.5125C8.09175 23.4897 7.7951 23.3987 7.49845 23.3305C6.15972 23.0046 4.8362 22.6559 3.48987 22.3602C2.79008 22.2086 2.08268 22.2465 1.41332 22.5346C1.31443 22.5725 1.18512 22.7923 1.21555 22.8529C1.58066 23.5504 2.18917 23.9749 2.88135 24.2857C2.53907 23.9294 2.17396 23.6034 1.83167 23.2471C1.74039 23.1486 1.73279 22.9667 1.67954 22.8226C1.83167 22.7847 2.00662 22.671 2.12832 22.7165C2.65316 22.8984 3.20843 23.0652 3.68003 23.3533C6.0152 24.7784 8.48728 25.8397 11.218 26.1505C12.8153 26.3324 14.2986 25.9155 15.6145 24.9679C15.7134 24.8921 15.8427 24.8542 15.9644 24.8011L15.8427 24.6647C15.5004 24.4903 15.1505 24.3084 14.8082 24.1341C14.8234 24.0961 14.8386 24.0658 14.8462 24.0279C14.9984 24.0582 15.1581 24.081 15.3026 24.1265C16.2078 24.3842 17.1054 24.6723 18.0181 24.8921C19.2504 25.1953 20.5054 25.3545 21.7529 25.0361C23.9816 24.4676 25.4876 23.0349 26.4765 21.0109C26.8948 20.1619 27.1839 19.275 27.1534 18.3047C27.1154 17.1221 26.5677 16.1442 25.8832 15.227C25.5561 14.7873 25.2214 14.3401 24.8943 13.9004C24.9247 13.8701 24.9476 13.8398 24.978 13.8094C25.267 14.0368 25.5713 14.2567 25.8451 14.4993C27.161 15.6591 27.9673 17.069 27.876 18.8808C27.6859 22.4436 24.9324 25.3848 21.3802 25.779C20.2012 25.9079 19.007 25.923 17.828 25.9988C17.5009 26.0216 17.1738 26.0822 16.8543 26.1277V26.2414C18.1398 27.0677 19.509 27.5528 21.0759 27.2345C22.0799 27.0298 23.0155 26.6887 23.7229 25.8776C23.9435 25.6198 24.2402 25.3924 24.552 25.256C26.3776 24.4145 27.4957 23.0121 27.9749 21.0791C27.9901 21.0185 28.0358 20.9654 28.0662 20.9123C28.0966 20.9199 28.1271 20.9275 28.1651 20.9427C28.0206 21.5794 27.9217 22.2313 27.7315 22.8529C27.3056 24.2781 26.5829 25.5743 25.8527 26.863C25.4116 27.6438 24.727 28.182 23.9055 28.5383C23.6849 28.6369 23.4567 28.7051 23.2361 28.7885C23.2437 28.8188 23.2513 28.8491 23.2589 28.8794C23.6241 28.8036 23.9968 28.7581 24.3467 28.652C25.3963 28.3336 26.0809 27.5907 26.6286 26.6659C28.0814 24.1947 28.8725 21.5794 28.4009 18.6837C28.1118 16.9099 27.4197 15.3483 25.9364 14.2415C25.2594 13.7412 24.5368 13.2864 23.8218 12.8391C23.6545 12.733 23.4263 12.6951 23.2209 12.6799C22.1636 12.6117 21.1368 12.7557 20.1251 13.059C19.7752 13.1651 19.4329 13.2712 19.083 13.3773C19.8513 12.7254 20.7869 12.4146 21.692 12.0508C21.5703 12.0356 21.4562 12.0508 21.3421 12.0659C20.2772 12.2554 19.2884 12.6572 18.3452 13.1803C17.7063 13.529 17.0597 13.7943 16.2763 13.6654C16.6338 13.9535 16.9989 14.2491 17.3564 14.5372L17.3259 14.5902C16.9532 14.3931 16.5881 14.196 16.2458 14.0065V15.75C16.4056 15.5529 16.5653 15.3634 16.725 15.1663L16.8087 15.2118C16.5957 15.6439 16.3827 16.076 16.1393 16.5839C16.5121 16.2731 16.8239 16.0078 17.1358 15.7425C16.7935 16.9629 15.8731 17.5163 14.7626 17.8498C13.7205 18.1682 12.6784 18.1606 12.2372 17.6831C13.5912 17.8574 14.4735 17.5466 14.9832 16.6824C15.3178 16.1139 15.3711 15.5302 15.044 14.9313C15.1201 15.4544 15.0897 15.9623 14.8082 16.4247C14.1008 17.5997 12.6708 17.8271 11.469 16.9553C11.3625 16.8795 11.256 16.8113 11.1419 16.7431C11.1267 16.7658 11.1039 16.7886 11.0887 16.8113C11.2104 16.9932 11.3321 17.1752 11.4462 17.3495C11.0811 17.6452 11.5603 17.7285 11.5831 17.9635C10.1759 17.2586 8.86 16.3641 7.24744 16.22C7.33871 16.2807 7.4376 16.3034 7.52887 16.3413C8.36558 16.6521 9.24032 16.8795 10.0238 17.2889C11.4005 18.0014 12.7241 18.8126 14.0628 19.5933C14.5876 19.9041 15.0136 20.3211 15.3255 20.8517C15.5917 21.2989 15.7286 21.7841 15.6677 22.4057C14.4051 20.2832 12.3361 19.2598 10.4041 18.0772L10.3965 18.0697ZM69.0115 16.9629C68.9887 16.9174 68.9735 16.8719 68.9507 16.8265C68.0912 17.1903 67.186 17.4784 66.3797 17.9408C65.1018 18.6685 63.9076 19.5251 62.6526 20.2907C62.1962 20.5712 61.7094 20.8744 61.1921 20.973C59.0167 21.3823 56.9706 21.064 55.2059 19.6312C54.6887 19.2067 54.1942 18.7519 53.7226 18.2743C52.1253 16.6597 50.3834 15.2421 48.421 14.0975C44.884 12.0432 41.0504 10.8151 37.0494 10.0647C36.3268 9.92823 35.5965 9.8221 34.8663 9.70081C34.8131 9.69323 34.7522 9.71597 34.699 9.71597C34.5697 9.71597 34.4328 9.73113 34.3035 9.71597C34.0524 9.69323 33.771 9.56436 33.5732 9.64017C33.4059 9.70839 33.3298 9.71597 33.1853 9.64017C33.0788 9.57952 32.8811 9.5113 32.8278 9.55678C32.5312 9.8221 32.2802 9.55678 32.0063 9.51888C31.9379 9.5113 31.8542 9.5113 31.8009 9.54162C31.4815 9.71597 31.1924 9.63259 30.9034 9.4734C30.873 9.45824 30.8349 9.45824 30.8045 9.45824C30.7665 9.54162 30.7284 9.61743 30.6904 9.68565C30.5079 9.62501 30.3557 9.53404 30.196 9.53404C29.8385 9.53404 29.4734 9.57952 29.055 9.60985C28.8421 9.90548 28.5074 9.5113 28.2183 9.61742C28.2031 9.68565 28.1879 9.76146 28.1727 9.83726C27.876 9.83726 27.5718 9.37485 27.3436 9.8979C27.0698 9.85242 26.7959 9.80694 26.4993 9.76145V10.0419C26.1722 9.98129 25.8603 9.92823 25.5257 9.87516C25.6474 10.2163 25.5104 10.2542 25.267 10.1784C25.0769 10.1177 24.8867 10.0647 24.6889 10.0192C24.6585 10.0192 24.6281 10.0344 24.5901 10.0419C24.6281 10.1405 24.6661 10.2239 24.727 10.3831C24.3847 10.3452 24.0956 10.3148 23.799 10.2769C23.7914 10.3755 23.7838 10.4589 23.7762 10.5726C23.5556 10.5422 23.3654 10.5195 23.1981 10.5043C23.0155 11.0122 22.407 10.7545 22.1408 11.1411C23.5708 11.1335 24.9704 11.1108 25.9364 12.3995C25.9592 12.3767 25.9744 12.354 25.9973 12.3312C25.7538 11.8916 25.5104 11.4443 25.267 11.0047L25.3355 10.9288C25.7615 11.3155 26.1798 11.7021 26.6058 12.0962C26.6286 12.0962 26.6438 12.0811 26.6666 12.0811C26.446 11.6717 26.2254 11.27 25.982 10.8227C26.659 11.0805 26.9709 11.649 27.3512 12.1569C27.374 12.1417 27.4044 12.1266 27.4273 12.1114C27.2447 11.649 27.0622 11.1942 26.8872 10.7318C26.9252 10.709 26.9557 10.6863 26.9937 10.6635C27.3664 11.1259 27.7467 11.5808 28.1194 12.0432C28.1347 12.0432 28.1499 12.028 28.1575 12.028C27.9901 11.5732 27.8228 11.1184 27.625 10.5953C28.2716 10.9819 28.5682 11.558 28.9409 12.0887C28.7736 11.5959 28.5986 11.1108 28.4161 10.5801C29.055 10.8 29.23 11.3761 29.6179 11.7854C29.4886 11.3685 29.3593 10.944 29.2148 10.4892C29.8233 10.8 30.0363 11.3761 30.3557 11.8688C30.3785 11.8537 30.409 11.8385 30.4318 11.8309C30.2949 11.3913 30.158 10.9516 30.021 10.5119C30.0515 10.4892 30.0819 10.4664 30.1199 10.4513C30.447 10.8834 30.7665 11.3079 31.1468 11.8158C31.0327 11.323 30.9338 10.9061 30.8425 10.4892C30.873 10.474 30.9034 10.4589 30.9338 10.4513C31.2153 10.8758 31.5043 11.3003 31.839 11.8082C31.7477 11.323 31.6792 10.9364 31.6108 10.5498C31.6412 10.5347 31.6716 10.5195 31.7097 10.5043C31.9911 10.9592 32.2725 11.414 32.554 11.8688C32.5768 11.8612 32.592 11.8461 32.6148 11.8385C32.4931 11.4064 32.3638 10.9743 32.2421 10.5422C32.2725 10.5195 32.3106 10.5043 32.341 10.4816C32.6529 10.9061 32.9647 11.3306 33.2766 11.7551C33.2994 11.7475 33.3146 11.7324 33.3374 11.7248C33.2157 11.3458 33.0864 10.9668 32.9495 10.5422C33.5352 10.7772 33.6721 11.3382 34.0372 11.7172C33.9536 11.3382 33.8699 10.9592 33.7862 10.5801C33.8243 10.565 33.8547 10.5422 33.8927 10.5271C34.2046 10.9592 34.5164 11.3913 34.8511 11.8612C34.7522 11.4292 34.661 11.0426 34.5545 10.5801C35.163 10.944 35.2467 11.558 35.5965 12.0204C35.5053 11.6111 35.4216 11.2017 35.3151 10.7318C35.878 11.0501 35.9312 11.6642 36.3344 12.0962C36.2507 11.6263 36.1746 11.2169 36.0986 10.8151C36.129 10.8 36.167 10.7848 36.1975 10.7697C36.4865 11.2472 36.7755 11.7248 37.0722 12.1948C37.0874 12.1872 37.1102 12.1796 37.1254 12.1645C37.0266 11.7627 36.9201 11.3534 36.8212 10.9516C36.8668 10.9364 36.9049 10.9137 36.9505 10.8985C37.2319 11.3155 37.521 11.7324 37.8024 12.1569C37.8176 12.1569 37.8252 12.1417 37.8404 12.1417C37.7568 11.7854 37.6731 11.4216 37.5894 11.0653C37.6275 11.0501 37.6655 11.035 37.7035 11.0198C37.9698 11.3609 38.236 11.6945 38.5022 12.0356C38.5174 12.028 38.5326 12.0129 38.5478 12.0053C38.4946 11.7248 38.4413 11.4519 38.3881 11.179C38.4261 11.1563 38.4642 11.1411 38.5022 11.1184C38.7912 11.505 39.0803 11.8916 39.4302 12.3616C39.3237 11.9371 39.24 11.6111 39.1487 11.2776C39.1868 11.2548 39.2248 11.2321 39.2628 11.2093C39.5519 11.5884 39.8409 11.9674 40.1528 12.3767C40.0995 12.0508 40.0615 11.7627 40.0159 11.4671C40.0539 11.4519 40.0843 11.4367 40.1224 11.4216C40.3962 11.8233 40.67 12.2251 40.9439 12.6269C40.9591 12.6269 40.9743 12.6117 40.9819 12.6041C40.9134 12.2858 40.845 11.9598 40.7765 11.6414C40.8069 11.6263 40.845 11.6111 40.8754 11.5959C41.1416 11.9446 41.4002 12.2933 41.7273 12.7178C41.6284 12.354 41.56 12.0811 41.4839 11.8082C41.5219 11.7854 41.5524 11.7703 41.5904 11.7475C41.8414 12.0356 42.0924 12.3161 42.3739 12.6496C42.3282 12.3843 42.2978 12.1796 42.2674 11.9674C42.3054 11.9522 42.3434 11.9295 42.3891 11.9143C42.6325 12.2782 42.8759 12.642 43.1269 13.0135C43.1421 13.0059 43.1573 12.9983 43.1801 12.9907C43.1269 12.7103 43.0737 12.4374 43.0128 12.1569C43.0432 12.1417 43.0813 12.1266 43.1117 12.1038C43.3703 12.4601 43.6365 12.824 43.9408 13.2485C43.9028 12.9301 43.8723 12.6875 43.8419 12.4449C43.8723 12.4298 43.9104 12.4146 43.9408 12.407C44.1994 12.7861 44.4656 13.1575 44.7775 13.6048C44.7319 13.2712 44.7014 13.0135 44.671 12.7633C44.7014 12.7482 44.7395 12.733 44.7699 12.7178C44.9981 13.0286 45.2263 13.347 45.4469 13.6578C45.4697 13.6427 45.4849 13.6275 45.5077 13.6123C45.4773 13.4304 45.4393 13.2485 45.4088 13.0665C45.4393 13.0514 45.4697 13.0362 45.5077 13.0211C45.7891 13.4001 46.0782 13.7715 46.4129 14.2264C46.3444 13.908 46.2912 13.673 46.2379 13.438C46.2684 13.4228 46.2988 13.4077 46.3292 13.3925C46.6106 13.7336 46.8997 14.0823 47.1811 14.4235C47.1963 14.4159 47.2115 14.4083 47.2268 14.4007C47.1583 14.1885 47.0898 13.9686 47.0214 13.7564L47.0975 13.7185C47.3941 14.0596 47.6831 14.4007 48.0406 14.8176C47.9722 14.5523 47.9342 14.3855 47.8961 14.2188C47.9189 14.2036 47.9494 14.1885 47.9722 14.1657C48.2612 14.5447 48.5427 14.9238 48.885 15.371C48.8241 15.1057 48.7785 14.9162 48.7328 14.7343C48.7633 14.7191 48.7861 14.7039 48.8165 14.6888C49.0979 15.0375 49.3718 15.3938 49.6912 15.7955C49.6456 15.5757 49.6152 15.4241 49.5848 15.2649C49.6152 15.2497 49.638 15.227 49.6684 15.2118C49.9499 15.5605 50.2389 15.9092 50.566 16.3034C50.5356 16.1518 50.5203 16.0684 50.5051 15.985C50.5356 15.9623 50.566 15.9471 50.5964 15.9244C50.8398 16.2276 51.0832 16.5232 51.357 16.8568V16.4171C51.6537 16.7658 51.8895 17.0463 52.1481 17.3495C52.1709 17.2586 52.1861 17.1903 52.2014 17.1524C52.5893 17.5163 52.9772 17.8726 53.3575 18.244C54.3996 19.2446 55.4645 20.2301 56.7728 20.8896C58.7809 21.913 60.7662 21.9205 62.721 20.7607C63.9761 20.0178 65.2312 19.275 66.4786 18.5245C67.3229 18.0166 68.1596 17.5011 69.0039 16.9857L69.0115 16.9629ZM35.7715 5.64525C35.7715 5.64525 35.7943 5.66799 35.8095 5.67558C36.2887 5.01607 36.7679 4.35657 37.2547 3.68949C36.9657 3.71223 36.6843 3.8032 36.4485 3.73497C36.1594 3.65159 35.9617 3.68949 35.7563 3.88658C35.7106 3.93206 35.5889 3.95481 35.5433 3.92448C35.4901 3.88658 35.4596 3.78045 35.4748 3.71223C35.4977 3.59094 35.5509 3.46207 35.6194 3.35595C35.8019 3.06789 36.0073 2.78741 36.1975 2.50693C36.1746 2.48419 36.1594 2.45387 36.1366 2.43113C35.6802 2.71919 35.2238 2.99966 34.7598 3.28772C34.7598 3.27256 34.7598 3.22708 34.737 3.18918C34.661 3.03757 34.5849 2.88596 34.5012 2.73435C34.3719 2.84806 34.1894 2.93144 34.1133 3.07547C33.3146 4.50818 32.7061 6.0167 32.2573 7.58586C32.2269 7.69198 32.2573 7.81327 32.2573 7.93456C32.3562 7.85875 32.4855 7.79811 32.5464 7.69956C32.7137 7.41151 32.8506 7.10071 33.0028 6.80507C33.0332 7.03248 32.9875 7.22199 32.9647 7.41909C32.9419 7.6086 32.9267 7.79811 32.9115 7.98762C32.9419 7.98762 32.9723 7.9952 33.0028 8.00278C33.5352 6.84297 34.0372 5.66041 34.988 4.66737C34.95 4.86446 34.9196 4.99333 34.8815 5.198C35.1097 5.00849 35.2771 4.87962 35.4901 4.70527C35.4748 4.87962 35.4672 4.97059 35.4444 5.18284C35.7639 4.91753 35.9997 4.71285 36.2355 4.50818C36.2507 4.51576 36.2659 4.53092 36.2811 4.5385C36.1138 4.90995 35.9464 5.27381 35.7791 5.64525H35.7715ZM32.1356 5.23591C32.1356 5.23591 32.1813 5.25865 32.2041 5.26623C32.767 4.1898 33.3374 3.10579 33.9079 2.0142C33.3831 2.2871 32.9267 2.54484 32.4551 2.75709C31.9074 3.00725 31.8998 2.99208 31.588 2.45387C31.3598 2.77983 31.1392 3.08305 30.8806 3.43175C30.8578 3.31805 30.8425 3.27256 30.8425 3.22708C30.8349 3.00725 30.7665 2.81773 30.5079 2.82531C30.2416 2.82531 30.2492 3.04515 30.2188 3.22708C30.0363 4.22012 29.8461 5.21317 29.6483 6.19863C29.5571 6.64588 29.443 7.09312 29.3517 7.54037C29.3365 7.60102 29.3973 7.67682 29.4201 7.74505C29.4886 7.70714 29.5723 7.69198 29.6103 7.63134C29.6712 7.53279 29.7016 7.41909 29.7472 7.30538C29.8385 7.09313 29.9298 6.88087 30.021 6.6762C30.0363 6.94152 29.983 7.18409 29.9602 7.42667C29.9526 7.52521 29.9982 7.63134 30.021 7.73747C30.0819 7.65408 30.1656 7.58586 30.2036 7.49489C30.6296 6.52459 31.0251 5.55429 31.4739 4.59157C31.6108 4.28835 31.8618 4.03819 32.052 3.76529C32.0748 3.78045 32.09 3.79562 32.1128 3.81078L32.0139 4.30351C32.0139 4.30351 32.0672 4.31867 32.0976 4.32625C32.2954 4.09883 32.5007 3.87142 32.6985 3.64401C32.7137 3.65917 32.7365 3.66675 32.7518 3.68191C32.5464 4.19738 32.3334 4.71285 32.128 5.22833L32.1356 5.23591ZM11.4538 27.2724C11.431 27.333 11.4081 27.3937 11.3853 27.4467C12.0471 27.7803 12.686 28.1972 13.3858 28.4398C15.5917 29.2054 17.866 29.357 20.1631 28.9098C21.4334 28.6672 22.6885 28.3412 23.799 27.6211C24.5901 27.1056 25.1758 26.4082 25.5713 25.5516C25.4496 25.6047 25.3507 25.6729 25.2594 25.7563C23.5708 27.2724 21.5779 28.1593 19.3797 28.6369C17.5998 29.0235 15.8579 28.9856 14.1769 28.1896C13.614 27.9243 13.0283 27.7045 12.4426 27.4922C12.1308 27.3785 11.7885 27.3406 11.4614 27.2648L11.4538 27.2724ZM38.6924 3.65917C38.0991 3.8411 37.6807 4.06851 37.4069 4.51576C37.2547 4.75834 37.1026 4.99333 36.9657 5.23591C36.4485 6.18347 35.9312 7.12345 35.4216 8.07859C35.3836 8.15439 35.4216 8.28326 35.4368 8.38939C35.5129 8.33632 35.6194 8.29842 35.6726 8.22262C35.8171 8.01794 35.9388 7.79811 36.0758 7.58586C36.0986 7.59344 36.1214 7.6086 36.1366 7.61618C36.0834 7.87391 36.0225 8.13165 35.9693 8.38181C35.9997 8.38939 36.0377 8.40455 36.0681 8.41213C36.342 7.98004 36.6082 7.54037 36.8896 7.11587C37.4601 6.25927 37.597 6.1304 37.9317 6.0167C37.8937 6.12282 37.8633 6.23653 37.7948 6.44878C38.1447 6.20621 38.4033 6.03186 38.7304 5.80444C38.525 6.16073 38.3653 6.42604 38.2132 6.69136C38.2284 6.69894 38.2512 6.7141 38.2664 6.72168C38.7684 6.19863 39.2704 5.68316 39.8105 5.1222C39.1716 5.09188 38.6163 5.06156 37.9926 5.03123C37.9241 4.53092 38.3501 4.16706 38.6924 3.65917ZM8.55574 23.1941C8.12218 22.4284 7.85595 22.1631 7.27786 21.9888C6.16733 21.6552 5.05679 21.3217 3.93104 21.0185C3.19322 20.8214 2.43258 20.7077 1.66433 20.8365C1.33725 20.8896 1.08624 21.0488 0.941718 21.443C1.71757 21.0412 2.45539 21.1928 3.18561 21.3823C3.83976 21.5567 4.4787 21.7917 5.12525 22.0115C6.251 22.3981 7.37675 22.7847 8.54813 23.1865L8.55574 23.1941ZM38.7989 9.03373C38.7989 9.03373 38.8673 9.04889 38.8977 9.05647C39.5671 8.38939 39.9398 7.31296 41.2025 7.40393C41.0808 7.58586 40.9743 7.75263 40.8754 7.91182C40.8906 7.9194 40.9058 7.93456 40.921 7.94214C41.2633 7.63892 41.598 7.32812 41.9631 7.00216C41.6817 6.9491 41.4383 6.96426 41.2633 6.85813C40.8678 6.61555 40.5103 6.56249 40.1452 6.9491C40.1148 6.91877 40.0919 6.88845 40.0615 6.85813C40.2897 6.42604 40.5103 5.99396 40.7385 5.56945C40.7157 5.53913 40.6928 5.51639 40.67 5.48606C40.4875 5.58461 40.2745 5.65283 40.1224 5.7817C39.1868 6.58523 38.6848 7.6844 38.1827 8.76841C38.1599 8.81389 38.1827 8.87454 38.1827 8.9276L38.274 8.98825C38.3957 8.8518 38.525 8.71535 38.6467 8.58648C38.7836 8.44245 38.9129 8.29842 39.1107 8.09375C38.9814 8.48035 38.8901 8.76083 38.7989 9.04131V9.03373ZM38.2512 19.7298C38.2512 19.7298 38.2588 19.6616 38.2664 19.6237C37.9469 19.5782 37.6275 19.5175 37.3004 19.5024C35.9084 19.4342 34.5621 19.6767 33.2233 20.033C32.0976 20.3362 30.9947 20.7077 29.9982 21.3217C29.7624 21.4657 29.5571 21.6477 29.3365 21.8144C29.3517 21.8372 29.3669 21.8675 29.3821 21.8902C32.2421 20.7986 35.1478 19.8738 38.2436 19.7298H38.2512ZM29.5114 3.71981C29.055 4.10641 28.6747 4.43238 28.2944 4.76592C28.089 4.94027 27.9217 5.03123 27.8228 4.67495C27.8076 4.61431 27.7087 4.56882 27.587 4.47028C27.5566 4.76592 27.549 4.97059 27.5185 5.17526C27.4044 5.98637 27.2827 6.79749 27.1762 7.61618C27.1686 7.70714 27.2371 7.80569 27.2751 7.89666C27.3664 7.84359 27.4805 7.80569 27.5337 7.72989C27.6098 7.61618 27.625 7.46457 27.6935 7.34328C28.051 6.63072 28.4237 5.91815 28.7888 5.21317C28.8268 5.22833 28.8649 5.24349 28.9105 5.25865V5.81202C28.9105 5.81202 28.9638 5.81202 28.9866 5.8196C29.1615 5.14494 29.3289 4.47028 29.519 3.72739L29.5114 3.71981ZM28.0662 33.5566C29.1691 35.1864 30.4546 36.6418 32.2573 37.5363C31.1696 35.8838 29.7548 34.58 28.0662 33.5566ZM10.6019 15.2649C11.3701 13.9762 12.6252 13.4077 14.3747 13.5744C14.1617 13.4532 14.04 13.3773 13.9107 13.3167C13.15 12.9756 12.3894 13.059 11.6439 13.347C10.5714 13.764 9.50654 14.196 8.44925 14.6509C7.90159 14.8859 7.39196 15.1967 6.86712 15.4771C6.88233 15.5075 6.89754 15.5378 6.90515 15.5681C7.49084 15.3331 8.08414 15.0981 8.70026 14.8555C8.71548 15.1512 8.76872 15.4317 9.08819 15.4089C9.23271 15.4013 9.41527 15.2497 9.49894 15.1133C9.68149 14.8101 9.32399 14.7797 9.14904 14.613C9.71192 14.3855 10.2368 14.1733 10.8148 13.9383C10.6551 14.4083 10.4117 14.7949 10.5943 15.2725L10.6019 15.2649ZM38.0002 20.4348C38.0002 20.4348 37.985 20.3741 37.9698 20.3438C35.8095 20.3438 33.8319 21.0715 31.8998 21.9433C33.9384 21.5415 35.9845 21.1398 38.023 20.738C38.023 20.7228 38.023 20.7001 38.023 20.6849C37.9393 20.6622 37.8557 20.6394 37.7492 20.6091C37.8557 20.5409 37.9317 20.4878 38.0078 20.4348H38.0002ZM23.5023 9.01857C20.4218 9.42033 17.577 10.4664 14.968 12.1341C17.7899 11.035 20.5435 9.73871 23.5023 9.01857ZM12.0091 16.4095C11.3929 15.4241 11.6363 14.5144 12.5035 14.4462C12.5111 15.1967 12.61 15.4013 12.9827 15.4468C13.325 15.4847 13.5227 15.2725 13.7357 14.5675C13.9563 14.848 14.1465 15.0905 14.3366 15.3255C14.2758 14.5599 13.8118 14.0293 13.1272 13.9459C12.5035 13.8625 11.7656 14.3704 11.507 15.0223C11.3321 15.462 11.4842 16.22 12.0091 16.4171V16.4095ZM28.2944 32.7379L28.2335 32.8137C28.4693 33.026 28.6899 33.2534 28.9409 33.4429C29.8537 34.1327 30.7741 34.8225 31.7097 35.4896C31.8922 35.6185 32.1356 35.6564 32.3562 35.7322C32.3714 35.7019 32.3866 35.664 32.4019 35.6336C31.2533 34.3601 29.8917 33.3822 28.302 32.7303L28.2944 32.7379ZM49.0371 37.1801C49.0827 37.1346 49.136 37.0891 49.1892 37.0436C48.1243 35.7928 47.067 34.5496 46.0021 33.2989C45.9641 33.3368 45.9185 33.3671 45.8804 33.405C46.6182 34.9287 47.4474 36.3841 49.0371 37.1801ZM50.2617 36.6039C49.3261 35.2167 48.1547 34.0493 46.8769 32.9805C47.706 34.4662 48.5883 35.899 50.2617 36.6039ZM51.0072 8.07101C49.1816 8.56374 47.6223 9.56436 46.1238 10.6635C47.8048 9.8979 49.6304 9.40517 51.0072 8.07101ZM47.9722 32.6318C48.8393 33.928 49.6684 35.2622 51.243 35.8156C50.4062 34.4966 49.1968 33.549 47.9722 32.6318ZM35.878 24.1037C35.9312 24.0203 35.9769 23.9521 36.0301 23.8763C35.9541 23.8384 35.8856 23.7778 35.8019 23.755C35.665 23.7171 35.5205 23.6716 35.3912 23.6868C34.1057 23.8005 32.8202 23.9218 31.5347 24.0507C31.5347 24.0886 31.5347 24.1341 31.5423 24.172C33.0332 24.2478 34.524 24.4448 36.1062 24.2478C35.9769 24.1644 35.916 24.1265 35.878 24.1037ZM43.0889 8.60922C42.6021 8.29084 42.5716 8.22262 42.6553 7.79811C42.6781 7.69198 42.6401 7.58586 42.6249 7.47215C42.5184 7.51005 42.3815 7.53279 42.2978 7.60102C41.7045 8.09375 41.3242 8.73051 41.0275 9.42791C41.0123 9.45824 41.0275 9.50372 41.0275 9.59468C41.3622 9.32937 41.6589 9.09437 41.9555 8.85938C41.9707 8.88212 41.9859 8.89728 41.9935 8.91244C41.8642 9.1626 41.7425 9.42033 41.6132 9.67049C41.6437 9.67807 41.6665 9.69323 41.6969 9.70081C42.1533 9.33695 42.6097 8.97309 43.0813 8.60164L43.0889 8.60922ZM49.3794 7.82085C47.6831 8.12407 46.1467 8.81389 44.671 9.66291C44.8612 9.61743 45.0513 9.5492 45.2339 9.48856C45.3252 9.45824 45.4773 9.40517 45.4925 9.43549C45.7359 9.77662 45.9717 9.49614 46.1847 9.42791C47.3256 9.04131 48.3601 8.45003 49.3718 7.82085H49.3794ZM37.7872 21.7462C35.8247 21.352 34.0524 22.0797 32.2573 22.6559C34.0905 22.2768 35.9845 22.2996 37.7872 21.7462ZM44.9372 33.5111C44.9372 33.5111 44.8764 33.5566 44.846 33.5793C45.5077 35.1409 46.2912 36.6039 47.782 37.5439C47.8125 37.5212 47.8505 37.4984 47.8809 37.4681C46.8997 36.1491 45.9185 34.8301 44.9372 33.5035V33.5111ZM49.2881 11.7248C50.9387 11.2017 52.5817 10.6711 53.8976 9.46582C52.209 9.8979 50.7714 10.853 49.2881 11.7248ZM30.9338 24.8315C32.4703 25.074 33.9764 25.5289 35.6498 25.491C35.4292 25.3697 35.2923 25.3014 35.0945 25.1953C35.3151 25.1726 35.4368 25.165 35.5661 25.1498C34.0448 24.6419 32.4855 24.8011 30.9338 24.839V24.8315ZM30.3481 25.4985C31.9607 25.9609 33.5428 26.5598 35.2467 26.6508C33.7406 25.7335 32.0672 25.5137 30.3481 25.4985ZM18.9537 27.9774C18.2843 27.6893 17.6834 27.4316 17.0825 27.1738C16.6718 26.9919 16.2763 26.7948 15.8655 26.6204C15.6297 26.5219 15.3863 26.484 15.1657 26.7417C16.2534 27.6438 17.4629 28.0986 18.9461 27.9774H18.9537ZM36.7984 23.1258C36.7984 23.1258 36.7984 23.0804 36.7984 23.0652C36.6995 23.0425 36.6006 23.0121 36.4028 22.9591C36.6538 22.8833 36.806 22.8378 36.9581 22.7923C35.2619 22.5118 33.6797 22.9591 32.1052 23.4291C33.6721 23.3229 35.2314 23.2244 36.7984 23.1183V23.1258ZM28.5682 32.2376C29.7852 32.9881 30.911 33.9205 32.4855 34.1858C31.3598 33.0487 30.0287 32.5181 28.5682 32.2376ZM49.0675 32.1769C49.8282 33.3974 50.779 34.3829 52.1329 34.9135C51.3342 33.7461 50.2237 32.9274 49.0675 32.1769ZM68.4182 18.3426C66.6612 18.8656 65.1247 19.7753 63.7479 20.9654C65.4137 20.2907 66.9122 19.3053 68.4182 18.3426ZM62.2114 30.9792C62.2114 30.9792 62.1353 31.0323 62.1049 31.055C62.7743 32.2679 63.4436 33.4808 64.113 34.6937C64.1434 34.6785 64.1739 34.6633 64.2043 34.6482C64.0598 34.2464 63.9076 33.8522 63.7631 33.4505C63.7783 33.4429 63.7935 33.4277 63.8164 33.4201C63.8848 33.4732 63.9533 33.5338 64.0293 33.5869C63.6414 32.556 63.0633 31.669 62.219 30.9792H62.2114ZM17.0521 28.2427C16.1926 27.8712 15.3026 27.4846 14.4051 27.1132C14.1693 27.0146 13.9107 26.9995 13.5684 26.9312C14.1845 27.8106 16.2839 28.5383 17.0521 28.2427ZM54.8256 10.1177C53.3727 10.474 52.1329 11.1411 50.8398 11.8688C52.0492 11.7779 54.1486 10.8606 54.8256 10.1177ZM32.4247 14.3097C32.4247 13.961 32.052 13.5972 31.6869 13.5972C31.3674 13.5972 31.1012 13.8625 31.1012 14.1733C31.1012 14.5296 31.4739 14.8859 31.839 14.8934C32.1432 14.8934 32.4247 14.6205 32.4247 14.3097ZM43.6898 33.405C44.245 35.0045 45.5381 36.801 46.3825 37.1725C45.4849 35.9141 44.5873 34.6633 43.6898 33.405ZM48.0939 10.8303C49.2957 10.4664 51.6157 9.04131 52.0112 8.42729C50.5127 8.9655 49.3185 9.92823 48.0939 10.8303ZM51.57 12.5587C52.9772 12.2706 54.354 11.9295 55.4949 11.0122C54.0878 11.2851 52.8175 11.9067 51.57 12.5587ZM50.102 31.6084C50.9159 32.6166 51.7754 33.5793 53.0533 34.0038C52.2622 32.9729 51.1821 32.2906 50.102 31.6084ZM49.8966 10.5953C51.0452 10.2466 52.1557 9.81452 52.9848 8.8897C51.8286 9.23082 50.817 9.8221 49.8966 10.5953ZM52.498 13.112C52.498 13.112 52.5284 13.1878 52.536 13.2257C53.3499 13.203 55.5482 12.5662 56.0046 11.8461L52.4904 13.112H52.498ZM39.8942 15.1436C39.8942 14.8404 39.5671 14.5068 39.2628 14.4993C38.9814 14.4993 38.6848 14.7797 38.6848 15.0526C38.6848 15.3483 39.027 15.697 39.3161 15.7046C39.5975 15.7046 39.8942 15.4241 39.8942 15.1512V15.1436ZM36.0986 14.4083C36.0986 14.0975 35.7715 13.7943 35.4444 13.8019C35.1478 13.8019 34.8968 14.052 34.9044 14.3401C34.9044 14.6433 35.2619 14.9768 35.5585 14.9617C35.8323 14.9541 36.0986 14.6736 36.0986 14.4083ZM29.306 31.8131C30.196 32.2376 31.1164 32.5408 32.1737 32.6014C31.5728 31.9571 30.4318 31.6463 29.306 31.8131ZM64.3184 21.5036C65.543 21.1398 66.6535 20.5561 67.688 19.8056C66.4406 20.124 65.3452 20.7456 64.3184 21.5036ZM64.8432 22.9894C65.5354 23.0425 67.939 22.3678 68.3802 22.0115C67.1175 22.1707 65.9462 22.4588 64.8432 22.9894ZM67.3001 27.6362C67.1936 27.5604 67.0871 27.4695 66.973 27.4012C66.5014 27.1435 66.0298 26.8858 65.543 26.6508C65.4593 26.6053 65.3224 26.6508 65.2159 26.6583C65.2464 26.7796 65.2312 26.9691 65.3072 27.0222C65.9005 27.4088 66.5699 27.5907 67.3001 27.6362ZM33.1397 27.1511C32.4779 26.7038 30.1656 25.9761 29.3973 25.9685C30.622 26.4916 31.8009 26.9161 33.1397 27.1511ZM56.3088 13.0438L56.2784 12.9453C55.2591 13.2636 54.2323 13.5744 53.213 13.8928C53.2206 13.9231 53.2358 13.961 53.2434 13.9914C54.0801 14.0368 55.7536 13.5214 56.3088 13.0438ZM64.6455 22.2313C65.7332 22.0343 66.7296 21.6097 67.65 21.0109C66.5547 21.1928 65.5734 21.6401 64.6455 22.2313ZM48.1167 17.8043C48.1167 17.5315 47.8581 17.2434 47.5995 17.2358C47.3256 17.2358 47.1279 17.4102 47.1203 17.6831C47.1051 17.9939 47.3561 18.2668 47.6451 18.2743C47.8961 18.2743 48.1167 18.0545 48.1167 17.8043ZM62.0745 33.8295C62.0745 33.8295 62.1353 33.8143 62.1658 33.7992C61.9452 32.8516 61.1465 30.8807 60.5912 30.532C61.1085 31.6842 61.5953 32.7531 62.0745 33.8219V33.8295ZM65.0106 32.8743C64.6379 31.9571 64.0826 31.1687 63.3067 30.5547C63.7175 31.4416 64.2727 32.2224 65.0106 32.8743ZM66.5851 29.1372L66.6916 28.9856C66.1972 28.6141 65.7028 28.2351 65.2007 27.8712C65.1399 27.8257 65.0182 27.8485 64.9269 27.8485C64.9497 27.9698 64.9269 28.1669 65.003 28.2123C65.5202 28.5383 66.0602 28.834 66.5851 29.1447V29.1372ZM67.5967 23.5049C66.7676 23.5655 65.9385 23.6262 65.041 23.6944C65.3072 24.0355 66.8817 23.9142 67.5967 23.5049ZM56.286 14.2946C56.286 14.2946 56.2708 14.2188 56.2556 14.1809C55.358 14.3931 54.4529 14.6054 53.5553 14.8176C53.5629 14.848 53.5705 14.8859 53.5781 14.9162C54.5213 14.8707 55.4341 14.7267 56.286 14.2946ZM43.8267 14.9541C43.8571 15.3407 43.994 15.5378 44.2603 15.5378C44.5341 15.5378 44.633 15.3179 44.6178 15.0754C44.6025 14.7949 44.4124 14.6281 44.1614 14.666C44.0169 14.6888 43.9028 14.8783 43.8267 14.9465V14.9541ZM51.3114 31.0399C51.3114 31.0399 51.2734 31.0929 51.2582 31.1233C52.0036 31.9268 53.0305 32.6697 53.5249 32.6848C52.7871 32.139 52.0492 31.5857 51.3114 31.0399ZM67.2545 26.2945C67.2697 26.2338 67.2773 26.1808 67.2925 26.1201C66.7372 25.9534 66.1896 25.779 65.6343 25.6198C65.5658 25.5971 65.4746 25.6501 65.3985 25.6729C65.4441 25.7563 65.4746 25.8927 65.5354 25.9079C66.1059 26.0519 66.684 26.1732 67.2545 26.2945ZM67.2773 25.0361C67.2773 24.9831 67.2849 24.9224 67.2925 24.8694C66.7448 24.7936 66.1972 24.7177 65.6419 24.6495C65.5354 24.6419 65.4289 24.7026 65.3224 24.7329C65.4289 24.8011 65.5278 24.9224 65.6343 24.93C66.182 24.9831 66.7296 24.9982 67.2773 25.0285V25.0361ZM56.712 15.2421C56.712 15.2421 56.6968 15.1739 56.6968 15.1436C55.8524 15.3028 55.0081 15.462 54.1714 15.6136C54.1714 15.6439 54.1866 15.6742 54.1866 15.7121C55.0614 15.7273 55.9057 15.5984 56.712 15.2421ZM44.2527 16.7507C44.2603 16.3868 44.1157 16.2276 43.8723 16.22C43.6746 16.2124 43.5224 16.2655 43.5148 16.5005C43.5072 16.7658 43.6974 17.0008 43.9332 16.9553C44.0701 16.9326 44.1842 16.7961 44.2527 16.7507ZM64.1663 29.9483C64.5162 30.532 64.8889 31.0929 65.4517 31.4871C65.1627 30.8579 64.7748 30.3121 64.1663 29.9483ZM56.9782 16.1821V16.0912C56.2328 16.1821 55.4873 16.2731 54.7419 16.3641C55.5102 16.4929 56.2632 16.4929 56.9782 16.1897V16.1821ZM64.5618 28.9249C64.5618 28.9249 64.5085 29.0007 64.4781 29.0386C64.9649 29.448 65.4593 29.8649 65.9462 30.2742L66.0374 30.1681C65.6267 29.6526 65.1855 29.1827 64.5618 28.9249ZM51.4635 20.1391C51.6841 20.2907 51.8134 20.4424 51.958 20.4651C52.1785 20.503 52.3459 20.3135 52.285 20.124C52.2394 19.9648 52.034 19.8435 51.9047 19.707C51.783 19.8208 51.6689 19.942 51.4635 20.1391ZM62.1201 23.285C62.1201 23.3381 62.1201 23.3987 62.1201 23.4518C62.2646 23.5504 62.4016 23.7171 62.5461 23.7247C62.6374 23.7323 62.8123 23.52 62.8351 23.3912C62.8656 23.1941 62.7362 23.0121 62.5004 23.05C62.3635 23.0728 62.2494 23.2017 62.1201 23.285ZM60.6673 23.467V23.3002C60.538 23.2017 60.4163 23.0576 60.2718 23.0197C60.036 22.9667 59.9371 23.1334 59.9447 23.3608C59.9447 23.5655 60.0208 23.7702 60.2642 23.7247C60.4087 23.702 60.538 23.5579 60.6749 23.467H60.6673ZM43.1878 16.1745C42.9672 16.0078 42.8531 15.8713 42.7085 15.8258C42.5336 15.7728 42.3891 15.9016 42.4575 16.0836C42.5108 16.2276 42.6477 16.3641 42.7846 16.455C42.8226 16.4778 42.9824 16.3262 43.1954 16.1821L43.1878 16.1745ZM50.7105 19.3962C50.9235 19.5554 51.0452 19.6767 51.1897 19.7298C51.2277 19.745 51.4027 19.5479 51.4179 19.4342C51.4407 19.2219 51.2962 19.0703 51.0756 19.1006C50.9767 19.1158 50.8931 19.2446 50.7105 19.3962ZM55.1983 17.1903V17.2965C55.7992 17.3344 56.3925 17.395 56.963 17.1827C56.963 17.1524 56.963 17.1221 56.963 17.0918C56.3773 17.1221 55.784 17.16 55.1983 17.1903ZM48.3449 18.6155C48.5199 18.7595 48.6263 18.9111 48.7404 18.9187C48.8241 18.9187 49.0143 18.7064 48.9915 18.6534C48.9382 18.5169 48.8013 18.4032 48.672 18.3274C48.6416 18.3047 48.497 18.4714 48.3373 18.6155H48.3449ZM18.7331 11.9598C18.7331 11.9598 18.7179 11.884 18.7027 11.8461C18.0257 11.9901 17.3412 12.1266 16.6642 12.2706C16.6718 12.3085 16.6794 12.354 16.687 12.3919C17.364 12.2479 18.0485 12.1038 18.7331 11.9598ZM24.1489 30.8352C24.727 30.7746 25.0617 30.4941 25.1073 30.0165C24.7422 30.3273 24.4455 30.5775 24.1489 30.8352ZM55.9513 21.9433C55.8068 22.148 55.6623 22.2617 55.6775 22.3451C55.7003 22.4512 55.8372 22.5573 55.9513 22.618C55.9894 22.6407 56.1795 22.4967 56.1719 22.4588C56.1415 22.3147 56.0578 22.1859 55.9513 21.9433ZM42.3739 17.7968C42.488 17.395 42.3967 17.1676 42.0848 17.016C41.9783 17.4177 42.0544 17.63 42.3739 17.7968ZM47.2876 19.0854C47.242 19.1006 47.1963 19.1158 47.1507 19.1309C47.2115 19.419 47.2648 19.7146 47.3409 20.0027C47.3561 20.0558 47.4321 20.0861 47.4778 20.1316C47.5234 20.0709 47.6147 19.9951 47.5995 19.9572C47.5082 19.6616 47.3941 19.3735 47.2876 19.0854ZM46.3064 18.6382C46.2607 18.6534 46.2075 18.6761 46.1619 18.6913C46.2151 18.9414 46.2607 19.1916 46.3292 19.4417C46.3444 19.5024 46.4357 19.5327 46.4965 19.5782C46.5346 19.51 46.6182 19.4342 46.603 19.3887C46.5194 19.1309 46.4129 18.8884 46.314 18.6382H46.3064ZM42.9748 17.3344C43.066 17.6073 43.1649 17.8877 43.2866 18.244C43.4996 17.8119 43.4007 17.5163 42.9748 17.3344ZM45.3328 19.0172C45.5686 18.6609 45.4088 18.2289 45.0285 18.0545C45.135 18.4032 45.2339 18.714 45.3328 19.0172ZM23.9663 30.1757C23.9283 30.1226 23.8827 30.0696 23.8446 30.0165C23.5784 30.2363 23.3046 30.4638 23.0384 30.6836C23.0764 30.7291 23.1144 30.7746 23.1525 30.82C23.4263 30.6078 23.7001 30.3879 23.9739 30.1757H23.9663ZM49.9194 20.3211C49.9423 20.6546 49.8966 21.0109 50.14 21.3369C50.3074 21.0109 50.2389 20.6925 49.9194 20.3211ZM56.7348 22.9212C56.6968 22.9212 56.6511 22.9288 56.6131 22.9363C56.5751 23.0273 56.4914 23.1334 56.5142 23.2092C56.5446 23.3229 56.6435 23.4139 56.712 23.52C56.7804 23.4442 56.9097 23.3608 56.9021 23.2926C56.8945 23.1713 56.7956 23.05 56.7424 22.9288L56.7348 22.9212ZM38.0534 16.6445C38.2816 16.2807 38.1447 15.9244 37.7035 15.6667C37.8328 16.0154 37.9241 16.2807 38.0534 16.6445ZM32.3106 15.3862C32.2954 15.8334 32.4019 15.9926 32.7137 16.0229C32.7365 15.7273 32.6453 15.5075 32.3106 15.3862ZM40.2289 17.0918C40.2289 17.0918 40.2973 17.0615 40.3277 17.0463C40.2212 16.781 40.1072 16.5081 40.0007 16.2428C39.8561 16.6976 39.9246 16.8871 40.2289 17.0918ZM43.1345 14.9162C43.1345 14.9162 43.2106 14.9086 43.2486 14.901C43.279 14.8176 43.3627 14.7115 43.3323 14.6433C43.2866 14.5296 43.1801 14.4462 43.0965 14.3476C43.0432 14.431 42.9367 14.522 42.9443 14.5978C42.9672 14.7115 43.0661 14.8101 43.1269 14.9162H43.1345ZM35.1554 16.1366C35.2238 16.1063 35.2923 16.076 35.3531 16.0381C35.2314 15.8031 35.1097 15.5605 34.988 15.3179L34.8435 15.3862C34.95 15.6363 35.0489 15.8789 35.1554 16.1291V16.1366ZM52.9848 20.4878C52.8935 20.6622 52.8099 20.7456 52.8175 20.8138C52.8403 20.9199 52.924 21.0109 52.9848 21.1094C53.0533 21.0336 53.175 20.9654 53.1826 20.8896C53.1826 20.7911 53.0913 20.6925 52.9848 20.4878ZM42.3739 14.1581C42.2217 14.052 42.1381 13.9686 42.0392 13.9383C42.0088 13.9307 41.8795 14.0823 41.8947 14.1278C41.9251 14.2339 42.0164 14.3173 42.0848 14.4083C42.1609 14.3401 42.237 14.2794 42.3739 14.1581ZM39.0347 16.6218L39.1335 16.5839C39.1716 16.2883 39.1411 16.0229 38.738 15.8258C38.8597 16.1442 38.9434 16.3792 39.0347 16.6218ZM55.0462 21.1246C54.9397 21.2762 54.8408 21.3672 54.856 21.4354C54.8712 21.5264 54.9625 21.6097 55.0309 21.6931C55.0918 21.6249 55.2059 21.5643 55.2059 21.496C55.2059 21.4051 55.1298 21.3065 55.0462 21.1322V21.1246ZM21.9582 30.4183C22.4603 30.3728 22.6428 30.2363 22.7037 29.8497C22.4527 30.0392 22.2245 30.2136 21.9582 30.4183ZM48.3601 20.7532C48.4134 20.7456 48.4666 20.738 48.5199 20.7304C48.4818 20.503 48.4438 20.2832 48.4058 20.0557C48.3601 20.0633 48.3145 20.0709 48.2612 20.0785C48.2917 20.3059 48.3297 20.5257 48.3601 20.7532ZM49.0979 19.8132C49.0371 19.8283 48.9762 19.8359 48.9078 19.8511C48.961 20.0633 49.0143 20.2832 49.0599 20.4954C49.1055 20.4878 49.1512 20.4727 49.2044 20.4651L49.0979 19.8132ZM33.6721 16.3262C33.5504 16.0987 33.4591 15.9168 33.3679 15.7425C33.307 16.1897 33.3374 16.2579 33.6721 16.3262ZM57.6704 24.1189C57.7236 24.1037 57.7845 24.0961 57.8377 24.081C57.7997 23.9142 57.7617 23.7399 57.7236 23.5731C57.6628 23.5883 57.6019 23.6034 57.5411 23.611C57.5791 23.7778 57.6247 23.9445 57.6628 24.1189H57.6704Z" fill="#DDCFB4"/>
</svg>
