<svg width="58" height="32" viewBox="0 0 58 32" fill="none" xmlns="http://www.w3.org/2000/svg">
<path d="M45.4974 15.7838C46.8604 16.2205 48.187 16.5298 49.4892 15.7717C50.0429 15.4503 50.5298 15.0318 51.0531 14.6619C52.2519 13.825 53.5054 13.0791 54.9354 12.7092C55.0632 12.6789 55.191 12.6485 55.3188 12.6243C56.4445 12.4424 57.1747 13.0488 57.2782 14.2435C57.3695 15.3351 57.193 16.4085 56.9009 17.4455C56.5054 18.8767 56.0611 20.2897 55.5865 21.6966C54.8563 23.8616 54.3512 26.0872 53.834 28.3068C53.6697 29.0224 53.4689 29.7259 53.2681 30.4293C53.2011 30.6598 53.0794 30.8842 52.9516 31.0903C52.55 31.7392 51.905 31.8787 51.3634 31.3511C50.8644 30.8599 50.4324 30.2898 50.049 29.7137C49.2032 28.4463 48.6129 27.0575 48.0835 25.6324C47.9679 25.317 47.828 25.0078 47.6637 24.7106C47.3837 24.2012 46.9578 23.8677 46.3919 23.7039C45.3148 23.3886 44.2256 23.2491 43.1059 23.3401C43.0085 23.3461 42.9112 23.3704 42.7347 23.4068C42.9781 23.5705 43.1546 23.6857 43.3311 23.8131C43.5562 23.9768 43.7935 24.1345 44.0004 24.3286C44.7185 25.0138 44.8706 25.7719 44.4264 26.6573C43.4162 28.6888 41.8645 30.1382 39.7469 31.0176C38.2926 31.6179 37.0816 31.2541 35.9437 30.2959C34.7875 29.3195 33.8382 28.1794 33.0959 26.8635C32.9194 26.5542 32.7003 26.4511 32.3596 26.5057C30.6801 26.7664 28.9945 26.8938 27.2967 26.8453C27.2298 26.8453 27.1689 26.8453 27.0837 26.8513C27.1263 27.2031 27.1933 27.5427 27.1933 27.8823C27.1933 28.4705 27.1629 29.0648 27.1203 29.6531C27.0716 30.2898 27.1446 30.8902 27.4732 31.4481C27.4975 31.4845 27.4975 31.533 27.528 31.6301C27.4002 31.6119 27.315 31.6058 27.2359 31.5816C26.1588 31.3208 25.2399 30.7629 24.4185 30.0351C24.102 29.7562 24.0899 29.7683 23.889 30.1504C23.5909 30.7143 23.384 31.3026 23.4631 32C23.3292 31.9575 23.2319 31.9515 23.1649 31.903C22.6903 31.5573 22.173 31.248 21.7593 30.8356C20.4875 29.556 19.7025 27.9975 19.3495 26.2328C19.2887 25.9174 19.1426 25.7719 18.8384 25.6991C16.2644 25.0745 13.6843 24.4498 11.1224 23.7828C9.46729 23.3522 7.93992 22.5881 6.38212 21.9028C4.92169 21.26 3.443 20.6414 1.97649 20.0107C1.02721 19.6044 0.34567 18.9494 0.0657542 17.9246C-0.201992 16.9482 0.370011 16.1356 1.38014 16.0628C1.75134 16.0385 2.12253 16.0628 2.52415 16.0628C2.43896 15.8687 2.32942 15.6807 2.26857 15.4806C2.14687 15.0622 1.99474 14.6377 1.95823 14.2071C1.90346 13.6188 2.18947 13.1519 2.68845 12.8365C2.88317 12.7092 3.10224 12.5697 3.3213 12.5454C4.06977 12.4484 4.65394 12.0057 5.30505 11.7025C6.61944 11.0961 7.95209 10.5321 9.27256 9.93776C10.6965 9.29494 12.1082 8.62786 13.5322 7.9911C15.7532 6.99654 18.0838 6.3901 20.4996 6.09901C20.7735 6.06869 20.8891 5.89888 20.9378 5.66237C21.1264 4.72239 21.315 3.78241 21.4915 2.84243C21.5463 2.54528 21.5706 2.24812 21.6315 1.95097C21.6497 1.86 21.7593 1.79329 21.8201 1.71446C21.887 1.78723 21.9844 1.84787 22.0209 1.93277C22.1 2.09045 22.1244 2.27844 22.2035 2.43005C22.4043 2.81211 22.7816 2.87882 23.0858 2.5756C23.2623 2.39973 23.4144 2.18141 23.5179 1.95703C23.7004 1.57498 23.8343 1.17473 23.9986 0.786605C24.0473 0.677446 24.1507 0.598609 24.2298 0.507643C24.2907 0.610738 24.3576 0.707768 24.4185 0.810863C24.4367 0.841185 24.4245 0.8897 24.4489 0.920022C24.5219 1.02918 24.601 1.21111 24.6923 1.22324C24.8262 1.23537 25.0087 1.15653 25.1 1.05344C25.3008 0.816927 25.4529 0.54403 25.6233 0.283261C25.672 0.210488 25.7024 0.125587 25.7694 0.0770719C25.8241 0.0285569 25.9276 -0.0138938 25.9762 0.00429932C26.0249 0.0285569 26.0614 0.137716 26.0614 0.210488C26.0554 0.331776 26.0067 0.446999 25.9762 0.568287C25.9215 0.792669 25.9337 1.03524 26.1405 1.15047C26.2866 1.22931 26.5483 1.25963 26.6882 1.18079C27.0959 0.956408 27.4671 0.665317 27.8626 0.410613C27.9417 0.356034 28.0574 0.349969 28.1547 0.319647C28.1669 0.410613 28.2034 0.513708 28.1852 0.598609C28.1304 0.895764 28.0269 1.20505 28.3008 1.44156C28.5807 1.68413 28.891 1.56285 29.177 1.43549C29.4448 1.32027 29.6882 1.15653 29.9498 1.03524C30.0289 0.998859 30.1385 1.01705 30.2358 1.01099C30.2298 1.09589 30.2298 1.18079 30.2115 1.26569C30.175 1.42943 30.102 1.5871 30.0898 1.75084C30.0655 2.09045 30.2176 2.32696 30.5584 2.38154C30.8504 2.42399 31.1486 2.38154 31.4468 2.36941C31.5502 2.36941 31.6476 2.32089 31.751 2.31483C31.9093 2.30877 31.9762 2.39367 31.9397 2.54528C31.9275 2.58773 31.9032 2.63018 31.8849 2.67869C31.6354 3.34578 31.9032 3.7339 32.6273 3.73996C32.9316 3.73996 33.2297 3.73996 33.5279 3.73996C33.7713 3.73996 33.82 3.83699 33.6861 4.03712C33.5096 4.30395 33.3393 4.57685 33.5218 4.89219C33.7105 5.22574 34.0573 5.19541 34.3798 5.19541C34.538 5.19541 34.7023 5.17116 34.8605 5.17722C34.9457 5.17722 35.0674 5.20148 35.11 5.25606C35.1405 5.29851 35.0979 5.42586 35.0553 5.49863C34.7206 6.06869 34.7997 6.33552 35.4082 6.63267C35.5299 6.69332 35.7003 6.7297 35.5299 6.99047C35.7672 6.88131 35.9315 6.79035 36.1019 6.7297C36.9782 6.40223 37.8483 6.02623 38.7429 5.7594C40.4041 5.26819 41.9741 5.52895 43.4345 6.48106C45.6556 7.93045 47.0856 9.90138 47.4446 12.5576C47.5967 13.6613 47.3168 14.6619 46.3797 15.3654C46.1363 15.5473 45.8381 15.6565 45.5217 15.8142L45.4974 15.7838ZM8.58494 19.2405C8.42673 19.3618 8.46324 19.5013 8.56668 19.6347C8.68839 19.7924 8.81618 19.944 8.95613 20.0774C9.40643 20.5201 10.2705 20.2654 10.4287 19.6772C10.2279 19.7681 10.0028 19.8652 9.77763 19.9683L9.72895 19.8955C10.0636 19.665 10.2827 19.3618 10.3557 18.9616C10.4957 18.2157 10.2644 17.5425 9.88716 16.9239C9.28473 15.9294 8.42673 15.1895 7.44702 14.5831C7.09408 14.3648 6.72289 14.1768 6.35778 13.9706C6.76549 14.4315 7.2097 14.8317 7.6174 15.2684C8.21983 15.9172 8.81618 16.5722 9.18128 17.397C9.36992 17.8215 9.50988 18.2642 9.40643 18.7372C9.32124 19.1314 9.00481 19.3194 8.58494 19.2405C8.84052 18.9434 8.90137 18.5977 8.77966 18.2399C8.67622 17.9306 8.5606 17.6153 8.39022 17.3424C7.56264 15.984 6.516 14.8014 5.26854 13.8129C4.93386 13.5521 4.54441 13.3338 4.14888 13.1701C3.62556 12.9518 3.02921 13.1519 2.84057 13.5521C3.19351 13.3217 3.21785 13.3156 3.61947 13.4733C3.78377 13.54 3.95415 13.6067 4.1002 13.7037C5.40242 14.5467 6.44906 15.6322 7.20362 16.9906C7.26447 17.0998 7.31315 17.209 7.36791 17.3181C7.41659 17.4212 7.46528 17.5304 7.50787 17.6395C6.46731 16.645 5.63365 15.4564 4.41662 14.6619C5.03122 15.3169 5.66408 15.9415 6.24216 16.6147C6.93587 17.4212 7.57481 18.2642 8.23809 19.095C8.32328 19.2041 8.40847 19.3315 8.57885 19.2405H8.58494ZM23.171 13.1701C23.171 13.1701 23.1345 13.1822 23.1223 13.1883C23.1832 13.3641 23.2562 13.5339 23.2927 13.7159C23.4631 14.4861 23.6517 15.2502 23.7856 16.0264C23.8404 16.3599 23.889 16.4206 24.2055 16.2569C25.1791 15.7474 26.1953 15.3654 27.2602 15.1167C28.3008 14.8681 29.3596 14.7468 30.4245 14.9288C31.4833 15.1107 32.0614 15.9415 31.8788 16.9967C31.5867 18.7129 30.7774 20.1744 29.6152 21.454C28.9093 22.2242 28.0452 22.5153 27.0411 22.3152C26.2988 22.1696 25.5564 21.9695 24.8322 21.7512C24.2237 21.5693 23.6274 21.3145 23.025 21.1084C22.9276 21.072 22.745 21.0659 22.7024 21.1205C22.3799 21.5329 22.0818 21.9695 21.7714 22.4001C21.8018 22.4243 21.8262 22.4425 21.8566 22.4668C22.1974 22.0483 22.5382 21.6299 22.8789 21.2175C22.3252 22.6548 21.1081 23.613 20.2562 24.8683C20.6578 24.7712 20.9438 24.5408 21.1568 24.2012C21.4063 23.7949 22.3678 22.867 22.8181 22.673C22.2643 23.4371 21.7106 24.2073 21.1203 25.0199C21.2603 24.9592 21.3637 24.9229 21.4611 24.8683C21.9053 24.6014 22.2278 24.2133 22.526 23.7949C22.6781 23.5826 22.8667 23.3946 23.0615 23.2188C23.1162 23.1703 23.244 23.1945 23.3353 23.1884C23.3231 23.2733 23.3353 23.3764 23.2988 23.4431C23.2075 23.6069 23.1041 23.7646 22.9884 23.9101C22.7024 24.28 22.4043 24.65 22.1122 25.0138C22.1244 25.0381 22.1426 25.0563 22.1548 25.0805C22.4164 24.9168 22.7146 24.7834 22.9398 24.5772C23.1771 24.3589 23.3475 24.0678 23.5605 23.8191C23.7065 23.6493 23.8586 23.4856 24.029 23.334C24.0716 23.2915 24.2055 23.2915 24.2481 23.334C24.2907 23.3643 24.2907 23.4917 24.2602 23.5523C24.1933 23.6979 24.102 23.8313 24.0108 23.9586C23.8465 24.2012 23.6761 24.4438 23.4935 24.7106C23.8769 24.7894 24.0838 24.6257 24.2602 24.3831C24.4489 24.1163 24.6193 23.8313 24.8383 23.5887C24.9053 23.5099 25.1 23.5462 25.24 23.5281C25.2156 23.6433 25.2278 23.7828 25.1669 23.8737C24.9722 24.1709 24.7531 24.4438 24.5402 24.7349C24.887 24.8683 25.0757 24.8016 25.2947 24.4802C25.4712 24.2255 25.6355 23.9586 25.8363 23.7282C25.9032 23.6493 26.0797 23.6736 26.2075 23.6493C26.1892 23.7646 26.2075 23.904 26.1527 23.995C25.9458 24.3164 25.7146 24.6257 25.4894 24.9411C25.7268 25.1048 25.9215 25.0199 26.0614 24.8562C26.244 24.6318 26.3961 24.3831 26.5665 24.1466C26.6517 24.0253 26.7247 23.8798 26.8403 23.7949C26.9255 23.7282 27.0716 23.7464 27.1872 23.7282C27.175 23.8373 27.1933 23.9647 27.1446 24.0496C26.8768 24.4802 26.5969 24.8925 26.3109 25.3231C26.457 25.5111 26.6213 25.4323 26.7308 25.2989C27.0107 24.9471 27.2663 24.5772 27.528 24.2133C27.6131 24.092 27.674 23.9404 27.7835 23.8495C27.8566 23.7888 27.9965 23.8009 28.1121 23.7828C28.1121 23.8858 28.1486 24.0132 28.106 24.086C27.82 24.559 27.5219 25.026 27.2176 25.4868C27.1568 25.5839 27.0777 25.6688 27.0107 25.7597C27.029 25.7779 27.0411 25.7961 27.0594 25.8204C27.1507 25.784 27.248 25.7597 27.3332 25.7112C27.7288 25.4747 28.0513 25.1654 28.2582 24.747C28.392 24.4862 28.5138 24.2255 28.6598 23.9708C28.7389 23.8252 28.8606 23.6857 29.0432 23.7888C29.2379 23.904 29.104 24.0557 29.031 24.1769C28.7085 24.7227 28.386 25.2625 28.0391 25.8386C28.2156 25.7416 28.392 25.6688 28.5381 25.5657C28.9215 25.2867 29.1649 24.8986 29.3596 24.4741C29.463 24.2558 29.5847 24.0375 29.7369 23.8495C29.7916 23.7828 29.962 23.807 30.0776 23.7888C30.0776 23.8919 30.0776 23.995 30.0715 24.092C30.0715 24.1345 30.0229 24.1709 29.9985 24.2073C29.6517 24.7349 29.3048 25.2625 28.958 25.7961C29.1709 25.7294 29.3778 25.6324 29.5604 25.499C29.9742 25.1897 30.2054 24.747 30.4367 24.3043C30.5401 24.1042 30.6557 23.9101 30.8018 23.7403C30.8504 23.6857 31.0026 23.716 31.106 23.7039C31.106 23.7949 31.1425 23.9162 31.0999 23.9768C30.7227 24.5226 30.3271 25.0563 29.9377 25.596C29.9072 25.6445 29.8707 25.687 29.8403 25.7355C29.8646 25.7597 29.8829 25.7901 29.9072 25.8143C30.175 25.6385 30.4975 25.505 30.6983 25.2746C31.0147 24.9107 31.2521 24.4802 31.5259 24.0738C31.6415 23.904 31.751 23.7282 31.8849 23.5826C31.9336 23.5281 32.0553 23.5402 32.1405 23.5281C32.1405 23.613 32.177 23.7221 32.1405 23.7828C31.818 24.2982 31.4772 24.8016 31.1364 25.3049C31.0634 25.4141 30.9539 25.499 30.8626 25.5899C30.8809 25.6142 30.9052 25.6445 30.9235 25.6688C31.1304 25.5475 31.3494 25.4505 31.5381 25.3049C32.031 24.9107 32.323 24.3771 32.5725 23.8131C32.6395 23.6675 32.7551 23.5341 32.8768 23.425C32.9255 23.3764 33.0411 23.4068 33.1324 23.4007C33.1324 23.4795 33.1567 23.5644 33.1324 23.6372C33.0959 23.7524 33.035 23.8616 32.9681 23.9647C32.6212 24.4741 32.2683 24.9774 31.891 25.5172C32.0796 25.408 32.2561 25.3231 32.4082 25.2139C32.9316 24.838 33.2297 24.2982 33.4914 23.7282C33.5705 23.5644 33.6739 23.4007 33.7956 23.2612C33.8443 23.2006 33.9782 23.2127 34.0695 23.1945C34.0695 23.2855 34.1121 23.3886 34.0756 23.4553C33.9295 23.7524 33.7835 24.0496 33.6009 24.3164C33.3636 24.6682 33.0898 24.9896 32.8281 25.3231C32.8403 25.3413 32.8524 25.3595 32.8707 25.3777C33.0837 25.2382 33.3149 25.1169 33.5157 24.9532C33.9843 24.559 34.2277 24.0193 34.4528 23.4674C34.5198 23.2976 34.6354 23.146 34.7571 23.0065C34.7997 22.958 34.9214 22.9701 35.0066 22.9519C35.0066 23.0308 35.037 23.1217 35.0066 23.1884C34.7571 23.8131 34.4528 24.4013 33.9843 24.8925C33.9113 24.9653 33.8382 25.0441 33.7713 25.1169L33.8261 25.1836C34.0025 25.0684 34.1851 24.9653 34.3494 24.8319C34.8484 24.4195 35.1405 23.8616 35.3595 23.2612C35.4265 23.0793 35.5421 22.9155 35.6638 22.7639C35.7064 22.7154 35.8281 22.7336 35.9133 22.7215C35.9133 22.8003 35.9498 22.8913 35.9194 22.9519C35.6942 23.3946 35.4691 23.8373 35.2257 24.274C35.1161 24.468 34.964 24.6378 34.8301 24.8258C34.8484 24.844 34.8666 24.8622 34.8849 24.8804C35.0431 24.7591 35.2196 24.6439 35.3656 24.5105C35.8342 24.0738 36.0897 23.5099 36.3149 22.9277C36.3757 22.7761 36.467 22.6305 36.5705 22.4971C36.607 22.4547 36.7408 22.4365 36.7956 22.4728C36.8443 22.5032 36.8686 22.6123 36.8686 22.6851C36.8686 22.7518 36.82 22.8246 36.7834 22.8913C36.4731 23.4553 36.1567 24.0132 35.8403 24.5711C36.0593 24.4256 36.3271 24.274 36.4731 24.0435C36.7713 23.5826 37.0086 23.0793 37.2703 22.5941C37.325 22.485 37.3615 22.3576 37.4467 22.2788C37.5137 22.2121 37.6354 22.206 37.7388 22.1757C37.751 22.2788 37.8118 22.4001 37.7692 22.4728C37.465 23.0247 37.1486 23.5584 36.826 24.1042C36.7956 24.1587 36.753 24.2073 36.7104 24.2618C36.7348 24.2861 36.7591 24.3043 36.7834 24.3286C37.0208 24.1102 37.3129 23.9283 37.4832 23.6736C37.751 23.2612 37.9396 22.7943 38.1648 22.3576C38.2378 22.2181 38.2986 22.0665 38.4021 21.9513C38.4629 21.8846 38.5968 21.8907 38.7003 21.8603C38.7003 21.9513 38.7246 22.0605 38.6881 22.1393C38.4264 22.7033 38.1526 23.2612 37.8605 23.8737C38.0796 23.6736 38.323 23.5281 38.4569 23.3097C38.7124 22.8852 38.895 22.4243 39.1141 21.9756C39.1688 21.8603 39.2114 21.7269 39.2966 21.636C39.3514 21.5753 39.4792 21.5814 39.5704 21.5571C39.5887 21.642 39.6374 21.7451 39.613 21.8118C39.4426 22.206 39.254 22.5941 39.0715 22.9823C39.0106 23.1096 38.9254 23.2309 38.8524 23.3522C39.2601 23.1945 39.5339 22.9034 39.7287 22.5456C39.8869 22.2485 40.0025 21.9271 40.1364 21.6178C40.2215 21.4176 40.325 21.2539 40.6049 21.266C40.684 21.8361 40.2824 22.2363 40.0938 22.7579C40.5623 22.4728 40.8422 22.1029 41.0004 21.6481C41.0613 21.4722 41.1221 21.2903 41.2317 21.1387C41.2864 21.0659 41.4325 21.0598 41.542 21.0235C41.5542 21.1144 41.5968 21.2236 41.5664 21.3024C41.4507 21.5874 41.3108 21.8664 41.1769 22.1393C41.1282 22.2424 41.0674 22.3334 40.9822 22.485C41.3595 22.3091 41.5664 22.0544 41.7185 21.7572C41.8463 21.5086 41.9376 21.2357 42.0836 20.9931C42.1384 20.9022 42.3027 20.8051 42.3818 20.8233C42.5704 20.8719 42.4791 21.0356 42.4244 21.1447C42.2418 21.5268 42.0532 21.9089 41.8645 22.303C42.2966 22.1393 42.5035 21.7936 42.6617 21.4055C42.7408 21.2115 42.8016 21.0113 42.9051 20.8355C42.9416 20.7748 43.0694 20.7627 43.1607 20.7324C43.1789 20.8112 43.2276 20.8961 43.2093 20.9689C43.1728 21.1205 43.1181 21.2782 43.0451 21.4176C42.9112 21.6723 42.759 21.9089 42.5887 22.2C43.0025 22.0605 43.2459 21.7997 43.4162 21.4662C43.5197 21.266 43.5805 21.0417 43.6962 20.8537C43.7448 20.7809 43.8909 20.7688 43.9943 20.7263C44.0126 20.8112 44.0734 20.9082 44.0491 20.9749C43.9639 21.2236 43.8544 21.4601 43.7327 21.6905C43.6475 21.8543 43.5379 21.9938 43.4041 22.2C43.8179 22.0605 44.0674 21.8361 44.2134 21.5025C44.2986 21.3085 44.3534 21.0902 44.4629 20.9022C44.5116 20.8173 44.6394 20.7869 44.7306 20.7263C44.755 20.8233 44.8219 20.9386 44.7854 21.0113C44.615 21.4116 44.4203 21.7997 44.2256 22.2C44.5177 22.115 44.7489 21.9149 44.901 21.6238C45.0166 21.3995 45.0957 21.1569 45.2114 20.9325C45.2418 20.8719 45.3452 20.8415 45.4183 20.7991C45.4608 20.8719 45.546 20.9628 45.5339 21.0174C45.4608 21.266 45.3574 21.5086 45.254 21.7512C45.187 21.8967 45.0957 22.0241 45.0166 22.1636C45.0471 22.1878 45.0836 22.2121 45.114 22.2424C45.2966 22.0544 45.5034 21.8785 45.6556 21.6723C45.7773 21.5086 45.8199 21.2903 45.9294 21.1205C45.9781 21.0477 46.118 21.0356 46.2215 20.9931C46.2519 21.0962 46.2945 21.1933 46.3006 21.2964C46.3006 21.3388 46.2519 21.3934 46.2215 21.4419C46.0146 21.7573 45.8016 22.0726 45.5947 22.3819C45.613 22.4061 45.6251 22.4243 45.6434 22.4486C45.8442 22.3091 46.0754 22.1939 46.2337 22.012C46.4101 21.8118 46.5014 21.545 46.6535 21.3206C46.7022 21.2478 46.8239 21.2236 46.9152 21.1751C46.9517 21.266 47.0369 21.3691 47.0186 21.448C46.9943 21.5814 46.9213 21.7087 46.8422 21.83C46.6596 22.109 46.471 22.3819 46.2519 22.7033C46.7813 22.5092 47.0917 22.1454 47.3533 21.7269C47.4385 21.5935 47.4568 21.3449 47.6941 21.4662C47.9375 21.5874 47.7793 21.7694 47.7063 21.921C47.6454 22.0483 47.5724 22.1696 47.4872 22.2849C47.3229 22.5092 47.1464 22.7215 46.9639 22.9459C47.0065 22.958 47.0247 22.9701 47.043 22.9701C47.0795 22.958 47.1099 22.9459 47.1464 22.9277C47.615 22.673 48.0166 22.3394 48.3391 21.9089C48.3817 21.8543 48.473 21.8361 48.546 21.7997C48.5704 21.8846 48.6312 21.9816 48.6129 22.0423C48.5399 22.2363 48.4486 22.4243 48.3452 22.5941C48.2235 22.7943 48.0775 22.9762 47.9132 23.2127C48.3817 23.0065 48.6616 22.7215 48.8624 22.297C48.8989 22.2242 48.9963 22.1818 49.0632 22.1272C49.0937 22.2303 49.1667 22.3334 49.1484 22.4304C49.1241 22.582 49.0389 22.7276 48.9841 22.8731C49.0085 22.8852 49.0328 22.8974 49.0572 22.9155C49.1606 22.7639 49.258 22.6063 49.3797 22.4728C49.4284 22.4243 49.5379 22.4304 49.617 22.4122C49.6231 22.485 49.6474 22.5638 49.6353 22.6305C49.6048 22.7518 49.5501 22.867 49.5075 22.9883L49.5683 23.0126C49.7326 22.861 49.903 22.7033 50.0673 22.5517C50.0977 22.5759 50.1281 22.6002 50.1525 22.6245C49.9882 22.9641 49.8239 23.2976 49.6596 23.6433C50.4081 23.3279 51.3573 21.824 51.1261 21.078C51.0409 21.3327 50.9618 21.5571 50.8888 21.7754C50.8766 21.7754 50.8584 21.7694 50.8462 21.7633C50.8279 21.5207 50.8097 21.2721 50.7914 21.0295C50.7671 21.0295 50.7427 21.0295 50.7123 21.0295C50.6332 21.2115 50.5541 21.3873 50.4628 21.6056C50.4141 21.3449 50.3776 21.1387 50.335 20.9264C50.3107 20.9264 50.2924 20.9264 50.2681 20.9264C50.2255 21.0902 50.1829 21.2539 50.1342 21.4176C50.0612 21.2054 50.0004 21.0053 49.9334 20.8051C49.9152 20.8112 49.8908 20.8173 49.8726 20.8233C49.8421 20.9871 49.8117 21.1508 49.7813 21.3146C49.7022 21.2539 49.7022 21.1993 49.6839 21.1508C49.6353 21.0235 49.5744 20.9022 49.5196 20.7748C49.477 20.9022 49.4405 21.0235 49.3979 21.1508C49.3979 21.1629 49.3736 21.1629 49.3371 21.1872C49.3006 21.0538 49.2823 20.9264 49.2336 20.8051C49.2093 20.7384 49.1302 20.696 49.0815 20.6414C49.045 20.702 48.9902 20.7506 48.972 20.8173C48.9476 20.8961 48.9537 20.981 48.9476 21.1266C48.8198 20.8597 48.7286 20.6657 48.6312 20.4655C48.6008 20.4777 48.5704 20.4837 48.5399 20.4959C48.5034 20.6171 48.473 20.7384 48.4243 20.9082C48.3209 20.6293 48.3695 20.3382 48.0714 20.2169C48.0227 20.411 47.9801 20.5868 47.9375 20.7566C47.8584 20.599 47.8401 20.4473 47.7854 20.3079C47.7671 20.2533 47.6819 20.2048 47.6211 20.1926C47.5906 20.1926 47.5237 20.2654 47.4994 20.32C47.4568 20.411 47.4324 20.5141 47.3898 20.6717C47.3412 20.5686 47.3168 20.5322 47.3046 20.4898C47.2499 20.3321 47.2134 20.1623 47.1403 20.0107C47.1099 19.9501 47.0186 19.9137 46.9517 19.8712C46.9152 19.9319 46.8726 19.9865 46.8483 20.0532C46.8057 20.1563 46.7691 20.2715 46.7326 20.3746C46.7083 20.3746 46.6779 20.3746 46.6535 20.3746C46.617 20.223 46.6049 20.0653 46.5379 19.9319C46.4892 19.8288 46.3675 19.7621 46.2763 19.6832C46.2215 19.7621 46.1606 19.8409 46.118 19.9258C46.0815 19.9986 46.0572 20.0895 46.0085 20.2351C45.8807 19.8652 45.7834 19.568 45.6799 19.2709C45.6556 19.2709 45.6312 19.2709 45.6069 19.2709C45.5339 19.4528 45.4608 19.6408 45.3696 19.8591C45.2905 19.5801 45.2174 19.3436 45.1505 19.1071C45.1262 19.1071 45.1079 19.1192 45.0836 19.1192C45.0714 19.2527 45.0653 19.3861 45.0531 19.5195H45.0166C44.9132 19.2405 44.8097 18.9555 44.7063 18.6765C44.6941 18.6826 44.6759 18.6887 44.6637 18.6947C44.6211 19.0343 44.5846 19.3739 44.542 19.7136C44.5177 19.7136 44.4872 19.7136 44.4629 19.7136C44.3838 19.2709 44.3351 18.816 44.0187 18.3794C43.9517 18.81 43.8909 19.1738 43.8361 19.5438C43.611 18.9373 43.5379 18.3006 43.2824 17.7244C43.2459 17.7366 43.2154 17.7426 43.1789 17.7548C43.2337 17.9852 43.2824 18.2157 43.3371 18.4279C43.2702 18.7129 43.2033 19.004 43.1181 19.3497C42.9416 18.907 43.039 18.4461 42.6921 18.0398C42.6191 18.434 42.5582 18.7554 42.4852 19.1192C42.3331 18.7008 42.3696 18.2581 42.0045 17.9064C41.9558 18.2763 41.9193 18.5977 41.8767 18.9131C41.8524 18.9131 41.8219 18.9131 41.7976 18.9131C41.7489 18.6462 41.7124 18.3794 41.6516 18.1186C41.5968 17.8579 41.5238 17.6031 41.4568 17.3484C41.4325 17.3484 41.4081 17.3606 41.3899 17.3666C41.3351 17.8093 41.2804 18.252 41.2256 18.6947C41.0187 18.1975 41.0856 17.6517 40.757 17.1483C40.7023 17.6577 40.6475 18.0944 40.5988 18.5371C40.5684 18.5371 40.5441 18.5371 40.5136 18.5371C40.4589 18.252 40.4102 17.967 40.3372 17.688C40.3128 17.585 40.2215 17.494 40.1668 17.397C40.112 17.4879 40.0329 17.5789 40.0025 17.682C39.9477 17.8882 39.9295 18.1065 39.893 18.3127C39.8199 18.2642 39.8078 18.2217 39.7956 18.1793C39.7226 17.8215 39.6617 17.4576 39.5765 17.1059C39.5583 17.0331 39.4609 16.9846 39.4001 16.9239C39.3575 16.9967 39.2966 17.0634 39.2844 17.1362C39.2479 17.4091 39.2297 17.682 39.1992 17.9549C39.0715 17.7002 39.0167 17.4394 38.9376 17.1847C38.9072 17.0877 38.8159 17.0028 38.7489 16.9118C38.7003 17.0028 38.6212 17.0877 38.6029 17.1847C38.5603 17.3848 38.5481 17.5971 38.5238 17.8033C38.3838 17.4212 38.3169 17.0452 38.2317 16.6753C38.2135 16.5965 38.1343 16.5298 38.0857 16.457C38.0309 16.5358 37.9396 16.6025 37.9214 16.6874C37.8727 16.8572 37.8666 17.0392 37.8362 17.215C37.8179 17.3121 37.7875 17.4091 37.7632 17.5061C37.6536 17.1544 37.5989 16.8087 37.5137 16.4691C37.4711 16.3054 37.3554 16.1598 37.2763 16.0021C37.2094 16.172 37.1242 16.3418 37.0755 16.5176C37.0329 16.6753 37.0208 16.8451 36.9964 17.0149L36.9538 16.9967C36.826 16.5237 36.6983 16.0446 36.5522 15.5049C36.0897 15.8323 36.3818 16.3114 36.1506 16.6753C36.1141 16.5358 36.0837 16.4327 36.0593 16.3296C35.9559 15.9112 35.8585 15.4867 35.7429 15.0743C35.7185 14.9833 35.6212 14.9166 35.5542 14.8378C35.5238 14.9348 35.4691 15.0318 35.4691 15.1289C35.4569 15.5291 35.4691 15.9354 35.4691 16.3418H35.3778C35.2257 15.8384 35.0796 15.329 34.9153 14.7771C34.4954 15.1653 34.7632 15.6383 34.5624 16.0567C34.4285 15.614 34.3068 15.2077 34.179 14.8135C34.1608 14.7529 34.0999 14.7044 34.0573 14.6498C33.9965 14.7044 33.9113 14.7408 33.8808 14.8075C33.8443 14.8863 33.8565 14.9894 33.8565 15.0864C33.8565 15.3108 33.8565 15.5352 33.8565 15.7596C33.8322 15.7596 33.8017 15.7596 33.7774 15.7656C33.6009 15.1835 33.4245 14.6073 33.2358 13.9706C32.8707 14.4739 33.1324 15.0137 32.9437 15.5473C32.889 15.3775 32.8646 15.2805 32.8342 15.1835C32.7186 14.8378 32.603 14.4921 32.4752 14.1464C32.4569 14.0919 32.3778 14.0555 32.3291 14.007C32.2865 14.0615 32.2196 14.1101 32.2013 14.1707C32.177 14.2677 32.1892 14.3769 32.177 14.48C32.1587 14.7408 32.1344 15.0015 32.1101 15.329C31.9336 14.7953 31.7815 14.3405 31.6233 13.8917C31.5989 13.825 31.5259 13.7826 31.4711 13.728C31.4224 13.7886 31.3494 13.8493 31.3312 13.916C31.3068 14.0009 31.319 14.104 31.319 14.195C31.319 14.4133 31.319 14.6316 31.319 14.8499C31.1243 14.4921 30.9904 14.1222 30.8504 13.7583C30.82 13.6856 30.747 13.631 30.6922 13.5643C30.6435 13.6431 30.5644 13.7159 30.5462 13.8008C30.5218 13.916 30.5401 14.0434 30.534 14.1646C30.5279 14.3041 30.5158 14.4436 30.5036 14.5831C30.3149 14.2617 30.1993 13.9342 30.0655 13.6188C30.0289 13.5339 29.9377 13.4794 29.8768 13.4066C29.8342 13.4976 29.7612 13.5885 29.7551 13.6856C29.7369 13.9281 29.7551 14.1646 29.7551 14.4072H29.6882C29.5178 13.9827 29.3413 13.5521 29.1527 13.0791C28.7876 13.4794 29.1283 13.916 28.9397 14.3284C28.8058 14.0373 28.7024 13.7886 28.5807 13.5521C28.5198 13.4309 28.4225 13.3278 28.3373 13.2125C28.3069 13.3702 28.2582 13.5218 28.246 13.6795C28.2399 13.8554 28.2703 14.0312 28.2825 14.2132C28.2582 14.2132 28.2338 14.2192 28.2095 14.2253C28.1547 14.1222 28.0939 14.013 28.0452 13.9099C27.96 13.7219 27.8931 13.5279 27.7957 13.3459C27.7653 13.2914 27.6679 13.2671 27.6071 13.2247C27.5766 13.2853 27.5219 13.352 27.5219 13.4127C27.5219 13.5643 27.5523 13.7098 27.5645 13.8614C27.5706 13.9645 27.5645 14.0615 27.5645 14.1646C27.534 14.1646 27.5097 14.1707 27.4793 14.1768C27.3576 13.916 27.242 13.6492 27.1081 13.3945C27.0777 13.3338 26.9864 13.3035 26.9255 13.261C26.9012 13.3278 26.8586 13.3884 26.8525 13.4551C26.8464 13.6856 26.8525 13.9099 26.8525 14.1404C26.8282 14.1404 26.7977 14.1525 26.7734 14.1525C26.6456 13.8857 26.53 13.6128 26.39 13.352C26.3535 13.2853 26.2623 13.2429 26.1953 13.1883C26.1649 13.2671 26.1223 13.3459 26.1162 13.4248C26.104 13.637 26.1162 13.8554 26.1162 14.0676C25.9702 13.8857 25.8971 13.6916 25.7998 13.5158C25.7268 13.3884 25.6111 13.2853 25.5199 13.1701C25.4894 13.3096 25.4468 13.449 25.4286 13.5946C25.4103 13.7401 25.4286 13.8917 25.4286 14.0434C25.2521 13.7705 25.1365 13.4976 25.0087 13.2247C24.9844 13.1701 24.9053 13.1458 24.8505 13.1094C24.8262 13.164 24.7775 13.2186 24.7714 13.2732C24.7653 13.4915 24.7714 13.7159 24.7714 13.9948C24.5219 13.6795 24.5462 13.2307 24.1142 13.0852C24.1446 13.3702 24.169 13.631 24.1994 13.9524C23.9986 13.6249 23.8221 13.3459 23.6456 13.0609C23.6152 13.0731 23.5909 13.0912 23.5605 13.1034C23.5544 13.2853 23.5422 13.4733 23.53 13.7341C23.384 13.4976 23.2866 13.3338 23.1893 13.1761V13.164L23.171 13.1701ZM8.31719 14.4557C8.38413 14.5164 8.45107 14.571 8.518 14.6316C9.04133 15.0864 9.59507 15.517 10.088 16.0021C10.7087 16.6086 11.2746 17.2635 11.4632 18.155C11.6884 19.2405 11.2928 20.1199 10.3435 20.4534C9.97844 20.5808 9.54031 20.6353 9.15694 20.5868C7.76345 20.3988 6.43689 19.9258 5.12858 19.4164C5.09207 19.3982 5.06773 19.3497 5.00688 19.2769C6.03527 19.5074 7.01498 19.7317 7.99468 19.9501C8.00685 19.9197 8.01902 19.8894 8.03119 19.8591C7.90341 19.6954 7.76345 19.5498 7.66 19.3739C7.44702 19.0101 7.13059 18.8403 6.7168 18.81C6.4734 18.7918 6.23608 18.719 5.99876 18.6644C4.92778 18.4036 3.86896 18.1247 2.79189 17.8882C2.23206 17.7669 1.66614 17.7972 1.13065 18.0277C1.05155 18.058 0.948099 18.2338 0.972439 18.2824C1.26453 18.8403 1.75134 19.1799 2.30508 19.4285C2.03125 19.1435 1.73917 18.8827 1.46533 18.5977C1.39231 18.5189 1.38623 18.3733 1.34363 18.2581C1.46533 18.2278 1.60529 18.1368 1.70265 18.1732C2.12253 18.3187 2.56674 18.4522 2.94402 18.6826C4.81216 19.8227 6.78983 20.6717 8.97439 20.9204C10.2523 21.0659 11.4389 20.7324 12.4916 19.9743C12.5707 19.9137 12.6742 19.8834 12.7715 19.8409L12.6742 19.7317C12.4003 19.5923 12.1204 19.4467 11.8466 19.3072C11.8587 19.2769 11.8709 19.2527 11.877 19.2223C11.9987 19.2466 12.1265 19.2648 12.2421 19.3012C12.9662 19.5074 13.6843 19.7378 14.4145 19.9137C15.4003 20.1563 16.4043 20.2836 17.4023 20.0289C19.1852 19.5741 20.3901 18.4279 21.1812 16.8087C21.5158 16.1295 21.7471 15.42 21.7227 14.6437C21.6923 13.6977 21.2542 12.9154 20.7065 12.1816C20.4449 11.8299 20.1771 11.4721 19.9155 11.1203C19.9398 11.0961 19.9581 11.0718 19.9824 11.0475C20.2136 11.2295 20.457 11.4053 20.6761 11.5994C21.7288 12.5273 22.3739 13.6552 22.3008 15.1046C22.1487 17.9549 19.9459 20.3079 17.1041 20.6232C16.1609 20.7263 15.2056 20.7384 14.2624 20.7991C14.0007 20.8173 13.739 20.8658 13.4835 20.9022V20.9931C14.5119 21.6542 15.6072 22.0423 16.8607 21.7876C17.664 21.6238 18.4124 21.3509 18.9783 20.702C19.1548 20.4959 19.3921 20.3139 19.6416 20.2048C21.1021 19.5316 21.9966 18.4097 22.3799 16.8633C22.3921 16.8148 22.4286 16.7723 22.453 16.7299C22.4773 16.7359 22.5016 16.742 22.5321 16.7541C22.4164 17.2635 22.3373 17.7851 22.1852 18.2824C21.8444 19.4225 21.2664 20.4595 20.6822 21.4904C20.3292 22.115 19.7816 22.5456 19.1244 22.8306C18.9479 22.9095 18.7654 22.9641 18.5889 23.0308C18.595 23.055 18.6011 23.0793 18.6072 23.1035C18.8992 23.0429 19.1974 23.0065 19.4773 22.9216C20.3171 22.6669 20.8647 22.0726 21.3029 21.3327C22.4651 19.3558 23.098 17.2635 22.7207 14.9469C22.4895 13.5279 21.9357 12.2786 20.7491 11.3932C20.2075 10.993 19.6295 10.6291 19.0575 10.2713C18.9236 10.1864 18.741 10.1561 18.5767 10.144C17.7309 10.0894 16.9094 10.2046 16.1001 10.4472C15.8202 10.5321 15.5463 10.617 15.2664 10.7019C15.881 10.1803 16.6295 9.9317 17.3536 9.64061C17.2563 9.62848 17.165 9.64061 17.0737 9.65274C16.2218 9.80435 15.4307 10.1258 14.6762 10.5442C14.165 10.8232 13.6478 11.0354 13.021 10.9323C13.307 11.1628 13.5991 11.3993 13.8851 11.6297L13.8608 11.6722C13.5626 11.5145 13.2705 11.3568 12.9967 11.2052V12.6C13.1245 12.4424 13.2522 12.2907 13.38 12.1331L13.447 12.1695C13.2766 12.5151 13.1062 12.8608 12.9115 13.2671C13.2096 13.0185 13.4591 12.8062 13.7086 12.594C13.4348 13.5703 12.6985 14.013 11.8101 14.2799C10.9764 14.5346 10.1427 14.5285 9.7898 14.1464C10.873 14.2859 11.5788 14.0373 11.9865 13.3459C12.2543 12.8911 12.2969 12.4242 12.0352 11.9451C12.0961 12.3635 12.0717 12.7698 11.8466 13.1398C11.2807 14.0797 10.1366 14.2617 9.1752 13.5643C9.09001 13.5036 9.00481 13.449 8.91354 13.3945C8.90137 13.4127 8.88311 13.4309 8.87094 13.449C8.9683 13.5946 9.06567 13.7401 9.15694 13.8796C8.86486 14.1161 9.24822 14.1828 9.26647 14.3708C8.14073 13.8068 7.088 13.0912 5.79795 12.976C5.87097 13.0245 5.95008 13.0427 6.0231 13.0731C6.69246 13.3217 7.39225 13.5036 8.01902 13.8311C9.12043 14.4012 10.1792 15.05 11.2502 15.6747C11.6701 15.9233 12.0109 16.2569 12.2604 16.6814C12.4733 17.0392 12.5829 17.4273 12.5342 17.9246C11.5241 16.2265 9.8689 15.4078 8.32328 14.4618L8.31719 14.4557ZM55.2092 13.5703C55.191 13.5339 55.1788 13.4976 55.1606 13.4612C54.4729 13.7523 53.7488 13.9827 53.1038 14.3526C52.0815 14.9348 51.1261 15.6201 50.1221 16.2326C49.757 16.457 49.3675 16.6996 48.9537 16.7784C47.2134 17.1059 45.5765 16.8512 44.1647 15.705C43.7509 15.3654 43.3554 15.0015 42.9781 14.6195C41.7002 13.3278 40.3067 12.1937 38.7368 11.278C35.9072 9.63454 32.8403 8.65211 29.6395 8.05174C29.0614 7.94258 28.4772 7.85768 27.8931 7.76065C27.8505 7.75458 27.8018 7.77278 27.7592 7.77278C27.6557 7.77278 27.5462 7.78491 27.4428 7.77278C27.242 7.75458 27.0168 7.65149 26.8586 7.71213C26.7247 7.76671 26.6639 7.77278 26.5483 7.71213C26.4631 7.66362 26.3048 7.60904 26.2622 7.64543C26.0249 7.85768 25.8241 7.64543 25.6051 7.6151C25.5503 7.60904 25.4834 7.60904 25.4408 7.6333C25.1852 7.77278 24.9539 7.70607 24.7227 7.57872C24.6984 7.56659 24.6679 7.56659 24.6436 7.56659C24.6132 7.6333 24.5828 7.69394 24.5523 7.74852C24.4063 7.7 24.2846 7.62723 24.1568 7.62723C23.8708 7.62723 23.5787 7.66362 23.244 7.68788C23.0736 7.92439 22.8059 7.60904 22.5747 7.69394C22.5625 7.74852 22.5503 7.80916 22.5381 7.86981C22.3008 7.86981 22.0574 7.49988 21.8749 7.91832C21.6558 7.88194 21.4367 7.84555 21.1994 7.80916V8.03355C20.9378 7.98503 20.6883 7.94258 20.4205 7.90013C20.5179 8.17303 20.4084 8.20335 20.2136 8.1427C20.0615 8.09419 19.9094 8.05174 19.7512 8.01535C19.7268 8.01535 19.7025 8.02748 19.6721 8.03355C19.7025 8.11238 19.7329 8.17909 19.7816 8.30644C19.5078 8.27612 19.2765 8.25186 19.0392 8.22154C19.0331 8.30038 19.027 8.36709 19.0209 8.45805C18.8445 8.43379 18.6923 8.4156 18.5585 8.40347C18.4124 8.80979 17.9256 8.6036 17.7126 8.91288C18.8566 8.90682 19.9763 8.88863 20.7491 9.91957C20.7674 9.90138 20.7795 9.88318 20.7978 9.86499C20.6031 9.51326 20.4084 9.15546 20.2136 8.80372L20.2684 8.74308C20.6092 9.05236 20.9438 9.36165 21.2846 9.67699C21.3029 9.67699 21.315 9.66487 21.3333 9.66487C21.1568 9.33739 20.9804 9.01598 20.7856 8.65818C21.3272 8.86437 21.5767 9.3192 21.881 9.72551C21.8992 9.71338 21.9236 9.70125 21.9418 9.68912C21.7958 9.3192 21.6497 8.95533 21.5098 8.58541C21.5402 8.56721 21.5645 8.54902 21.595 8.53083C21.8931 8.90075 22.1974 9.26462 22.4956 9.63454C22.5077 9.63454 22.5199 9.62241 22.526 9.62241C22.3921 9.25855 22.2582 8.89469 22.1 8.47625C22.6173 8.78553 22.8546 9.24642 23.1527 9.67093C23.0189 9.27674 22.8789 8.88862 22.7329 8.46412C23.244 8.63999 23.384 9.10088 23.6943 9.42836C23.5909 9.09481 23.4874 8.75521 23.3718 8.39135C23.8586 8.63999 24.029 9.10088 24.2846 9.49506C24.3028 9.48293 24.3272 9.47081 24.3454 9.46474C24.2359 9.11301 24.1264 8.76127 24.0168 8.40954C24.0412 8.39135 24.0655 8.37315 24.0959 8.36102C24.3576 8.70669 24.6132 9.0463 24.9174 9.45261C24.8262 9.05843 24.7471 8.72489 24.674 8.39135C24.6984 8.37922 24.7227 8.36709 24.7471 8.36102C24.9722 8.70063 25.2034 9.04023 25.4712 9.44655C25.3982 9.05843 25.3434 8.74914 25.2886 8.43986C25.313 8.42773 25.3373 8.4156 25.3677 8.40347C25.5929 8.76734 25.818 9.1312 26.0432 9.49506C26.0614 9.489 26.0736 9.47687 26.0919 9.47081C25.9945 9.12514 25.8911 8.77947 25.7937 8.43379C25.818 8.4156 25.8485 8.40347 25.8728 8.38528C26.1223 8.72489 26.3718 9.06449 26.6213 9.4041C26.6395 9.39803 26.6517 9.3859 26.67 9.37984C26.5726 9.07662 26.4691 8.7734 26.3596 8.43379C26.8282 8.62179 26.9377 9.07056 27.2298 9.37378C27.1628 9.07056 27.0959 8.76734 27.029 8.46412C27.0594 8.45199 27.0837 8.4338 27.1142 8.42167C27.3637 8.76734 27.6132 9.11301 27.8809 9.489C27.8018 9.14333 27.7288 8.83405 27.6436 8.46412C28.1304 8.75521 28.1973 9.24642 28.4772 9.61635C28.4042 9.28887 28.3373 8.9614 28.2521 8.58541C28.7024 8.84011 28.745 9.33132 29.0675 9.67699C29.0006 9.301 28.9397 8.97353 28.8789 8.65211C28.9032 8.63999 28.9336 8.62786 28.958 8.61573C29.1892 8.99778 29.4204 9.37984 29.6578 9.75583C29.6699 9.74977 29.6882 9.7437 29.7004 9.73158C29.6212 9.41016 29.5361 9.08268 29.4569 8.76127C29.4935 8.74914 29.5239 8.73095 29.5604 8.71882C29.7855 9.05236 30.0168 9.3859 30.2419 9.72551C30.2541 9.72551 30.2602 9.71338 30.2724 9.71338C30.2054 9.42836 30.1385 9.13726 30.0715 8.85224C30.102 8.84011 30.1324 8.82798 30.1628 8.81585C30.3758 9.08875 30.5888 9.35558 30.8018 9.62848C30.8139 9.62242 30.8261 9.61029 30.8383 9.60422C30.7957 9.37984 30.7531 9.16152 30.7105 8.9432C30.7409 8.92501 30.7713 8.91288 30.8018 8.89469C31.033 9.20397 31.2642 9.51326 31.5441 9.88925C31.459 9.54964 31.392 9.28887 31.319 9.02204C31.3494 9.00385 31.3798 8.98565 31.4103 8.96746C31.6415 9.27068 31.8727 9.5739 32.1222 9.90138C32.0796 9.64061 32.0492 9.41016 32.0127 9.17365C32.0431 9.16152 32.0675 9.14939 32.0979 9.13726C32.317 9.45868 32.536 9.78009 32.7551 10.1015C32.7673 10.1015 32.7794 10.0894 32.7855 10.0833C32.7307 9.8286 32.676 9.56784 32.6212 9.31313C32.6456 9.301 32.676 9.28887 32.7003 9.27674C32.9133 9.55571 33.1202 9.83467 33.3819 10.1743C33.3027 9.88318 33.248 9.66487 33.1871 9.44655C33.2176 9.42835 33.2419 9.41623 33.2723 9.39803C33.4731 9.62848 33.6739 9.85286 33.8991 10.1197C33.8626 9.90744 33.8382 9.7437 33.8139 9.5739C33.8443 9.56177 33.8748 9.54358 33.9113 9.53145C34.106 9.82254 34.3007 10.1136 34.5015 10.4108C34.5137 10.4047 34.5259 10.3987 34.5441 10.3926C34.5015 10.1682 34.4589 9.94989 34.4102 9.72551C34.4346 9.71338 34.465 9.70125 34.4893 9.68306C34.6962 9.96809 34.9092 10.2592 35.1526 10.5988C35.1222 10.3441 35.0979 10.15 35.0735 9.95596C35.0979 9.94383 35.1283 9.9317 35.1526 9.92564C35.3595 10.2289 35.5725 10.526 35.822 10.8838C35.7855 10.617 35.7611 10.4108 35.7368 10.2107C35.7611 10.1985 35.7916 10.1864 35.8159 10.1743C35.9985 10.4229 36.181 10.6776 36.3575 10.9263C36.3757 10.9141 36.3879 10.902 36.4062 10.8899C36.3818 10.7443 36.3514 10.5988 36.3271 10.4532C36.3514 10.4411 36.3757 10.429 36.4062 10.4169C36.6313 10.7201 36.8626 11.0172 37.1303 11.3811C37.0755 11.1264 37.0329 10.9384 36.9903 10.7504C37.0147 10.7383 37.039 10.7261 37.0634 10.714C37.2885 10.9869 37.5197 11.2659 37.7449 11.5388C37.7571 11.5327 37.7692 11.5266 37.7814 11.5206C37.7266 11.3508 37.6719 11.1749 37.6171 11.0051L37.678 10.9748C37.9153 11.2477 38.1465 11.5206 38.4325 11.8541C38.3778 11.6419 38.3473 11.5084 38.3169 11.375C38.3352 11.3629 38.3595 11.3508 38.3778 11.3326C38.609 11.6358 38.8341 11.939 39.108 12.2968C39.0593 12.0846 39.0228 11.9329 38.9863 11.7874C39.0106 11.7753 39.0289 11.7631 39.0532 11.751C39.2784 12.03 39.4974 12.315 39.753 12.6364C39.7165 12.4605 39.6921 12.3393 39.6678 12.2119C39.6921 12.1998 39.7104 12.1816 39.7347 12.1695C39.9599 12.4484 40.1911 12.7274 40.4528 13.0427C40.4284 12.9214 40.4163 12.8547 40.4041 12.788C40.4284 12.7698 40.4528 12.7577 40.4771 12.7395C40.6718 12.9821 40.8666 13.2186 41.0856 13.4854V13.1337C41.323 13.4127 41.5116 13.637 41.7185 13.8796C41.7367 13.8068 41.7489 13.7523 41.7611 13.7219C42.0714 14.013 42.3818 14.2981 42.686 14.5952C43.5197 15.3957 44.3716 16.1841 45.4183 16.7117C47.0247 17.5304 48.6129 17.5364 50.1768 16.6086C51.1809 16.0143 52.1849 15.42 53.1829 14.8196C53.8583 14.4133 54.5277 14.0009 55.2031 13.5885L55.2092 13.5703ZM28.6172 4.5162C28.6172 4.5162 28.6355 4.5344 28.6476 4.54046C29.031 4.01286 29.4144 3.48526 29.8038 2.95159C29.5726 2.96978 29.3474 3.04256 29.1588 2.98798C28.9275 2.92127 28.7693 2.95159 28.605 3.10926C28.5685 3.14565 28.4712 3.16384 28.4346 3.13959C28.392 3.10926 28.3677 3.02436 28.3799 2.96978C28.3981 2.87275 28.4407 2.76966 28.4955 2.68476C28.6415 2.45431 28.8058 2.22993 28.958 2.00555C28.9397 1.98735 28.9275 1.9631 28.9093 1.9449C28.5442 2.17535 28.1791 2.39973 27.8079 2.63018C27.8079 2.61805 27.8079 2.58166 27.7896 2.55134C27.7288 2.43005 27.6679 2.30877 27.601 2.18748C27.4975 2.27844 27.3515 2.34515 27.2906 2.46038C26.6517 3.60654 26.1649 4.81336 25.8059 6.06869C25.7815 6.15359 25.8059 6.25062 25.8059 6.34765C25.885 6.287 25.9884 6.23849 26.0371 6.15965C26.171 5.9292 26.2805 5.68056 26.4022 5.44405C26.4265 5.62599 26.39 5.77759 26.3718 5.93527C26.3535 6.08688 26.3414 6.23849 26.3292 6.3901C26.3535 6.3901 26.3779 6.39616 26.4022 6.40223C26.8282 5.47438 27.2298 4.52833 27.9904 3.7339C27.96 3.89157 27.9357 3.99467 27.9052 4.1584C28.0878 4.00679 28.2217 3.9037 28.392 3.76422C28.3799 3.9037 28.3738 3.97647 28.3555 4.14628C28.6111 3.93402 28.7998 3.77028 28.9884 3.60654C29.0006 3.61261 29.0127 3.62474 29.0249 3.6308C28.891 3.92796 28.7572 4.21905 28.6233 4.5162H28.6172ZM25.7085 4.18873C25.7085 4.18873 25.745 4.20692 25.7633 4.21298C26.2136 3.35184 26.67 2.48463 27.1263 1.61136C26.7065 1.82968 26.3414 2.03587 25.9641 2.20567C25.5259 2.4058 25.5199 2.39367 25.2704 1.9631C25.0878 2.22386 24.9114 2.46644 24.7045 2.7454C24.6862 2.65444 24.674 2.61805 24.674 2.58166C24.6679 2.4058 24.6132 2.25419 24.4063 2.26025C24.1933 2.26025 24.1994 2.43612 24.1751 2.58166C24.029 3.3761 23.8769 4.17053 23.7187 4.9589C23.6456 5.3167 23.5544 5.6745 23.4813 6.0323C23.4692 6.08081 23.5179 6.14146 23.5361 6.19604C23.5909 6.16572 23.6578 6.15359 23.6882 6.10507C23.7369 6.02623 23.7613 5.93527 23.7978 5.8443C23.8708 5.6745 23.9438 5.5047 24.0168 5.34096C24.029 5.55321 23.9864 5.74727 23.9682 5.94133C23.9621 6.02017 23.9986 6.10507 24.0168 6.18997C24.0655 6.12326 24.1325 6.06869 24.1629 5.99591C24.5036 5.21967 24.8201 4.44343 25.1791 3.67325C25.2886 3.43068 25.4894 3.23055 25.6416 3.01223C25.6598 3.02436 25.672 3.03649 25.6902 3.04862L25.6111 3.44281C25.6111 3.44281 25.6537 3.45493 25.6781 3.461C25.8363 3.27907 26.0006 3.09714 26.1588 2.9152C26.171 2.92733 26.1892 2.9334 26.2014 2.94553C26.0371 3.3579 25.8667 3.77028 25.7024 4.18266L25.7085 4.18873ZM9.16303 21.8179C9.14477 21.8664 9.12652 21.9149 9.10826 21.9574C9.63767 22.2242 10.1488 22.5578 10.7087 22.7518C12.4733 23.3643 14.2928 23.4856 16.1305 23.1278C17.1467 22.9337 18.1508 22.673 19.0392 22.0969C19.6721 21.6845 20.1406 21.1266 20.457 20.4413C20.3597 20.4837 20.2806 20.5383 20.2075 20.605C18.8566 21.8179 17.2623 22.5274 15.5037 22.9095C14.0798 23.2188 12.6863 23.1884 11.3415 22.5517C10.8912 22.3394 10.4227 22.1636 9.9541 21.9938C9.70461 21.9028 9.43077 21.8725 9.16911 21.8118L9.16303 21.8179ZM30.9539 2.92733C30.4792 3.07288 30.1446 3.25481 29.9255 3.61261C29.8038 3.80667 29.6821 3.99467 29.5726 4.18873C29.1588 4.94677 28.745 5.69876 28.3373 6.46287C28.3069 6.52351 28.3373 6.62661 28.3495 6.71151C28.4103 6.66906 28.4955 6.63874 28.5381 6.57809C28.6537 6.41436 28.7511 6.23849 28.8606 6.06869C28.8789 6.07475 28.8971 6.08688 28.9093 6.09294C28.8667 6.29913 28.818 6.50532 28.7754 6.70545C28.7998 6.71151 28.8302 6.72364 28.8545 6.7297C29.0736 6.38403 29.2866 6.0323 29.5117 5.69269C29.9681 5.00742 30.0776 4.90432 30.3454 4.81336C30.315 4.89826 30.2906 4.98922 30.2358 5.15903C30.5158 4.96497 30.7227 4.82549 30.9843 4.64355C30.82 4.92858 30.6922 5.14083 30.5705 5.35309C30.5827 5.35915 30.601 5.37128 30.6131 5.37735C31.0147 4.9589 31.4164 4.54652 31.8484 4.09776C31.3373 4.0735 30.893 4.04924 30.3941 4.02499C30.3393 3.62474 30.6801 3.33365 30.9539 2.92733ZM6.84459 18.5553C6.49774 17.9428 6.28476 17.7305 5.82229 17.591C4.93386 17.3242 4.04543 17.0574 3.14483 16.8148C2.55457 16.6571 1.94606 16.5661 1.33146 16.6692C1.0698 16.7117 0.868992 16.839 0.753374 17.1544C1.37406 16.833 1.96432 16.9543 2.54849 17.1059C3.07181 17.2453 3.58296 17.4333 4.1002 17.6092C5.0008 17.9185 5.9014 18.2278 6.83851 18.5492L6.84459 18.5553ZM31.0391 7.22698C31.0391 7.22698 31.0938 7.23911 31.1182 7.24518C31.6537 6.71151 31.9519 5.85037 32.962 5.92314C32.8646 6.06869 32.7794 6.2021 32.7003 6.32945C32.7125 6.33552 32.7247 6.34765 32.7368 6.35371C33.0107 6.11114 33.2784 5.8625 33.5705 5.60173C33.3453 5.55928 33.1506 5.57141 33.0107 5.4865C32.6942 5.29244 32.4082 5.24999 32.1161 5.55928C32.0918 5.53502 32.0736 5.51076 32.0492 5.4865C32.2318 5.14083 32.4082 4.79516 32.5908 4.45556C32.5725 4.4313 32.5543 4.41311 32.536 4.38885C32.39 4.46769 32.2196 4.52227 32.0979 4.62536C31.3494 5.26819 30.9478 6.14752 30.5462 7.01473C30.5279 7.05112 30.5462 7.09963 30.5462 7.14208L30.6192 7.1906C30.7166 7.08144 30.82 6.97228 30.9174 6.86918C31.0269 6.75396 31.1304 6.63874 31.2886 6.475C31.1851 6.78428 31.1121 7.00867 31.0391 7.23305V7.22698ZM30.601 15.7838C30.601 15.7838 30.607 15.7293 30.6131 15.6989C30.3575 15.6625 30.102 15.614 29.8403 15.6019C28.7267 15.5473 27.6497 15.7414 26.5787 16.0264C25.6781 16.269 24.7957 16.5661 23.9986 17.0574C23.8099 17.1726 23.6456 17.3181 23.4692 17.4515C23.4813 17.4697 23.4935 17.494 23.5057 17.5122C25.7937 16.6389 28.1182 15.8991 30.5949 15.7838H30.601ZM23.6091 2.97585C23.244 3.28513 22.9398 3.5459 22.6355 3.81273C22.4712 3.95221 22.3373 4.02499 22.2582 3.73996C22.2461 3.69145 22.167 3.65506 22.0696 3.57622C22.0453 3.81273 22.0392 3.97647 22.0148 4.14021C21.9235 4.7891 21.8262 5.43799 21.741 6.09294C21.7349 6.16572 21.7897 6.24455 21.8201 6.31733C21.8931 6.27487 21.9844 6.24455 22.027 6.18391C22.0878 6.09294 22.1 5.97165 22.1548 5.87462C22.4408 5.30457 22.739 4.73452 23.031 4.17053C23.0615 4.18266 23.0919 4.19479 23.1284 4.20692V4.64962C23.1284 4.64962 23.171 4.64962 23.1893 4.65568C23.3292 4.11595 23.4631 3.57622 23.6152 2.98191L23.6091 2.97585ZM22.453 26.8453C23.3353 28.1491 24.3637 29.3135 25.8059 30.0291C24.9357 28.707 23.8039 27.664 22.453 26.8453ZM8.48149 12.2119C9.09609 11.181 10.1001 10.7261 11.4997 10.8596C11.3293 10.7625 11.232 10.7019 11.1285 10.6534C10.52 10.3805 9.9115 10.4472 9.31516 10.6776C8.45715 11.0112 7.60523 11.3568 6.7594 11.7207C6.32127 11.9087 5.91357 12.1573 5.49369 12.3817C5.50586 12.406 5.51803 12.4302 5.52412 12.4545C5.99267 12.2665 6.46731 12.0785 6.96021 11.8844C6.97238 12.1209 7.01498 12.3453 7.27055 12.3271C7.38617 12.3211 7.53221 12.1998 7.59915 12.0906C7.74519 11.848 7.45919 11.8238 7.31923 11.6904C7.76953 11.5084 8.18941 11.3386 8.65188 11.1506C8.52409 11.5266 8.32936 11.8359 8.47541 12.218L8.48149 12.2119ZM30.4001 16.3478C30.4001 16.3478 30.388 16.2993 30.3758 16.275C28.6476 16.275 27.0655 16.8572 25.5199 17.5546C27.1507 17.2332 28.7876 16.9118 30.4184 16.5904C30.4184 16.5783 30.4184 16.5601 30.4184 16.5479C30.3515 16.5298 30.2845 16.5116 30.1993 16.4873C30.2845 16.4327 30.3454 16.3903 30.4062 16.3478H30.4001ZM18.8019 7.21485C16.3374 7.53627 14.0616 8.37315 11.9744 9.70732C14.2319 8.82798 16.4348 7.79097 18.8019 7.21485ZM9.60724 13.1276C9.11435 12.3393 9.30907 11.6115 10.0028 11.557C10.0089 12.1573 10.088 12.3211 10.3861 12.3575C10.66 12.3878 10.8182 12.218 10.9886 11.654C11.165 11.8784 11.3172 12.0724 11.4693 12.2604C11.4206 11.6479 11.0494 11.2234 10.5018 11.1567C10.0028 11.09 9.41252 11.4963 9.20562 12.0178C9.06567 12.3696 9.18737 12.976 9.60724 13.1337V13.1276ZM22.6355 26.1903L22.5868 26.251C22.7755 26.4208 22.9519 26.6027 23.1527 26.7543C23.883 27.3062 24.6193 27.858 25.3677 28.3917C25.5138 28.4948 25.7085 28.5251 25.885 28.5857C25.8971 28.5615 25.9093 28.5312 25.9215 28.5069C25.0026 27.4881 23.9134 26.7058 22.6416 26.1843L22.6355 26.1903ZM39.2297 29.744C39.2662 29.7077 39.3088 29.6713 39.3514 29.6349C38.4995 28.6343 37.6536 27.6397 36.8017 26.6391C36.7713 26.6694 36.7348 26.6937 36.7043 26.724C37.2946 27.9429 37.9579 29.1073 39.2297 29.744ZM40.2094 29.2832C39.4609 28.1734 38.5238 27.2395 37.5015 26.3844C38.1648 27.573 38.8706 28.7192 40.2094 29.2832ZM40.8057 6.45681C39.3453 6.85099 38.0978 7.65149 36.8991 8.53083C38.2439 7.91832 39.7043 7.52414 40.8057 6.45681ZM38.3778 26.1054C39.0715 27.1424 39.7347 28.2098 40.9944 28.6525C40.325 27.5973 39.3575 26.8392 38.3778 26.1054ZM28.7024 19.283C28.745 19.2163 28.7815 19.1617 28.8241 19.1011C28.7632 19.0707 28.7085 19.0222 28.6415 19.004C28.532 18.9737 28.4164 18.9373 28.3129 18.9494C27.2846 19.0404 26.2562 19.1374 25.2278 19.2405C25.2278 19.2709 25.2278 19.3072 25.2339 19.3376C26.4265 19.3982 27.6192 19.5559 28.8849 19.3982C28.7815 19.3315 28.7328 19.3012 28.7024 19.283ZM34.4711 6.88738C34.0816 6.63267 34.0573 6.57809 34.1242 6.23849C34.1425 6.15359 34.1121 6.06869 34.0999 5.97772C34.0147 6.00804 33.9052 6.02623 33.8382 6.08081C33.3636 6.475 33.0593 6.98441 32.822 7.54233C32.8099 7.56659 32.822 7.60297 32.822 7.67575C33.0898 7.46349 33.3271 7.2755 33.5644 7.0875C33.5766 7.10569 33.5888 7.11782 33.5948 7.12995C33.4914 7.33008 33.394 7.53627 33.2906 7.73639C33.3149 7.74246 33.3332 7.75458 33.3575 7.76065C33.7226 7.46956 34.0877 7.17847 34.465 6.88131L34.4711 6.88738ZM39.5035 6.25668C38.1465 6.49926 36.9173 7.05112 35.7368 7.73033C35.8889 7.69394 36.0411 7.63936 36.1871 7.59085C36.2601 7.56659 36.3818 7.52414 36.394 7.5484C36.5887 7.82129 36.7774 7.59691 36.9477 7.54233C37.8605 7.23305 38.6881 6.76003 39.4974 6.25668H39.5035ZM30.2298 17.397C28.6598 17.0816 27.242 17.6638 25.8059 18.1247C27.2724 17.8215 28.7876 17.8397 30.2298 17.397ZM35.9498 26.8089C35.9498 26.8089 35.9011 26.8453 35.8768 26.8635C36.4062 28.1127 37.0329 29.2832 38.2256 30.0351C38.25 30.0169 38.2804 29.9988 38.3047 29.9745C37.5197 28.9193 36.7348 27.8641 35.9498 26.8028V26.8089ZM39.4305 9.37984C40.751 8.9614 42.0653 8.53689 43.1181 7.57265C41.7672 7.91832 40.6171 8.68244 39.4305 9.37984ZM24.7471 19.8652C25.9762 20.0592 27.1811 20.4231 28.5198 20.3928C28.3434 20.2957 28.2338 20.2412 28.0756 20.1563C28.2521 20.1381 28.3495 20.132 28.4529 20.1199C27.2359 19.7136 25.9884 19.8409 24.7471 19.8712V19.8652ZM24.2785 20.3988C25.5685 20.7688 26.8343 21.2478 28.1973 21.3206C26.9925 20.5868 25.6537 20.411 24.2785 20.3988ZM15.163 22.3819C14.6275 22.1514 14.1468 21.9452 13.666 21.7391C13.3374 21.5935 13.021 21.4358 12.6924 21.2964C12.5038 21.2175 12.309 21.1872 12.1326 21.3934C13.0027 22.115 13.9703 22.4789 15.1569 22.3819H15.163ZM29.4387 18.5007C29.4387 18.5007 29.4387 18.4643 29.4387 18.4522C29.3596 18.434 29.2805 18.4097 29.1223 18.3673C29.3231 18.3066 29.4448 18.2702 29.5665 18.2338C28.2095 18.0095 26.9438 18.3673 25.6842 18.7433C26.9377 18.6584 28.1852 18.5795 29.4387 18.4946V18.5007ZM22.8546 25.7901C23.8282 26.3904 24.7288 27.1364 25.9884 27.3486C25.0878 26.439 24.0229 26.0144 22.8546 25.7901ZM39.254 25.7416C39.8625 26.7179 40.6232 27.5063 41.7063 27.9308C41.0674 26.9969 40.179 26.3419 39.254 25.7416ZM54.7346 14.674C53.3289 15.0925 52.0997 15.8202 50.9983 16.7723C52.331 16.2326 53.5297 15.4442 54.7346 14.674ZM49.7691 24.7834C49.7691 24.7834 49.7083 24.8258 49.6839 24.844C50.2194 25.8143 50.7549 26.7846 51.2904 27.7549C51.3147 27.7428 51.3391 27.7307 51.3634 27.7185C51.2478 27.3971 51.1261 27.0818 51.0105 26.7604C51.0227 26.7543 51.0348 26.7422 51.0531 26.7361C51.1079 26.7786 51.1626 26.8271 51.2235 26.8695C50.9131 26.0448 50.4507 25.3352 49.7752 24.7834H49.7691ZM13.6417 22.5941C12.9541 22.297 12.2421 21.9877 11.5241 21.6905C11.3354 21.6117 11.1285 21.5996 10.8547 21.545C11.3476 22.2485 13.0271 22.8306 13.6417 22.5941ZM43.8605 8.09419C42.6982 8.37922 41.7063 8.91288 40.6718 9.49506C41.6394 9.42229 43.3189 8.6885 43.8605 8.09419ZM25.9397 11.4478C25.9397 11.1688 25.6416 10.8777 25.3495 10.8777C25.0939 10.8777 24.8809 11.09 24.8809 11.3386C24.8809 11.6237 25.1791 11.9087 25.4712 11.9148C25.7146 11.9148 25.9397 11.6964 25.9397 11.4478ZM34.9518 26.724C35.396 28.0036 36.4305 29.4408 37.106 29.738C36.3879 28.7313 35.6699 27.7307 34.9518 26.724ZM38.4751 8.66424C39.4366 8.37315 41.2925 7.23305 41.609 6.74183C40.4102 7.1724 39.4548 7.94258 38.4751 8.66424ZM41.256 10.0469C42.3818 9.81648 43.4832 9.54358 44.396 8.80979C43.2702 9.0281 42.254 9.52539 41.256 10.0469ZM40.0816 25.2867C40.7327 26.0933 41.4203 26.8635 42.4426 27.2031C41.8098 26.3783 40.9457 25.8325 40.0816 25.2867ZM39.9173 8.47625C40.8361 8.19728 41.7246 7.85161 42.3879 7.11176C41.4629 7.38466 40.6536 7.85768 39.9173 8.47625ZM41.9984 10.4896C41.9984 10.4896 42.0227 10.5503 42.0288 10.5806C42.6799 10.5624 44.4385 10.053 44.8037 9.47687L41.9923 10.4896H41.9984ZM31.9153 12.1149C31.9153 11.8723 31.6537 11.6055 31.4103 11.5994C31.1851 11.5994 30.9478 11.8238 30.9478 12.0421C30.9478 12.2786 31.2216 12.5576 31.4529 12.5636C31.678 12.5636 31.9153 12.3393 31.9153 12.1209V12.1149ZM28.8789 11.5266C28.8789 11.278 28.6172 11.0354 28.3555 11.0415C28.1182 11.0415 27.9174 11.2416 27.9235 11.4721C27.9235 11.7146 28.2095 11.9815 28.4468 11.9693C28.6659 11.9633 28.8789 11.7389 28.8789 11.5266ZM23.4448 25.4505C24.1568 25.7901 24.8931 26.0326 25.7389 26.0812C25.2582 25.5657 24.3454 25.317 23.4448 25.4505ZM51.4547 17.2029C52.4344 16.9118 53.3228 16.4448 54.1504 15.8445C53.1525 16.0992 52.2762 16.5965 51.4547 17.2029ZM51.8746 18.3915C52.4283 18.434 54.3512 17.8942 54.7042 17.6092C53.694 17.7366 52.7569 17.967 51.8746 18.3915ZM53.8401 22.109C53.7549 22.0483 53.6697 21.9756 53.5784 21.921C53.2011 21.7148 52.8239 21.5086 52.4344 21.3206C52.3675 21.2842 52.2579 21.3206 52.1727 21.3267C52.1971 21.4237 52.1849 21.5753 52.2458 21.6178C52.7204 21.9271 53.2559 22.0726 53.8401 22.109ZM26.5117 21.7209C25.9823 21.3631 24.1325 20.7809 23.5179 20.7748C24.4976 21.1933 25.4408 21.5329 26.5117 21.7209ZM45.0471 10.435L45.0227 10.3562C44.2073 10.6109 43.3858 10.8596 42.5704 11.1143C42.5765 11.1385 42.5887 11.1688 42.5948 11.1931C43.2641 11.2295 44.6028 10.8171 45.0471 10.435ZM51.7164 17.7851C52.5865 17.6274 53.3837 17.2878 54.12 16.8087C53.2437 16.9543 52.4588 17.3121 51.7164 17.7851ZM38.4934 14.2435C38.4934 14.0252 38.2865 13.7947 38.0796 13.7886C37.8605 13.7886 37.7023 13.9281 37.6962 14.1464C37.684 14.3951 37.8849 14.6134 38.1161 14.6195C38.3169 14.6195 38.4934 14.4436 38.4934 14.2435ZM49.6596 27.0636C49.6596 27.0636 49.7083 27.0515 49.7326 27.0393C49.5561 26.2813 48.9172 24.7045 48.473 24.4256C48.8868 25.3474 49.2762 26.2024 49.6596 27.0575V27.0636ZM52.0085 26.2995C51.7103 25.5657 51.2661 24.935 50.6454 24.4438C50.974 25.1533 51.4182 25.7779 52.0085 26.2995ZM53.2681 23.3097L53.3533 23.1884C52.9577 22.8913 52.5622 22.5881 52.1606 22.297C52.1119 22.2606 52.0145 22.2788 51.9415 22.2788C51.9598 22.3758 51.9415 22.5335 52.0024 22.5699C52.4162 22.8306 52.8482 23.0672 53.2681 23.3158V23.3097ZM54.0774 18.8039C53.4141 18.8524 52.7508 18.9009 52.0328 18.9555C52.2458 19.2284 53.5054 19.1314 54.0774 18.8039ZM45.0288 11.4357C45.0288 11.4357 45.0166 11.375 45.0045 11.3447C44.2864 11.5145 43.5623 11.6843 42.8442 11.8541C42.8503 11.8784 42.8564 11.9087 42.8625 11.9329C43.6171 11.8966 44.3473 11.7813 45.0288 11.4357ZM35.0614 11.9633C35.0857 12.2726 35.1952 12.4302 35.4082 12.4302C35.6273 12.4302 35.7064 12.2544 35.6942 12.0603C35.682 11.8359 35.5299 11.7025 35.3291 11.7328C35.2135 11.751 35.1222 11.9026 35.0614 11.9572V11.9633ZM41.0491 24.8319C41.0491 24.8319 41.0187 24.8743 41.0065 24.8986C41.6029 25.5414 42.4244 26.1357 42.8199 26.1479C42.2296 25.7112 41.6394 25.2685 41.0491 24.8319ZM53.8036 21.0356C53.8157 20.9871 53.8218 20.9446 53.834 20.8961C53.3898 20.7627 52.9516 20.6232 52.5074 20.4959C52.4527 20.4777 52.3796 20.5201 52.3188 20.5383C52.3553 20.605 52.3796 20.7142 52.4283 20.7263C52.8847 20.8415 53.3472 20.9386 53.8036 21.0356ZM53.8218 20.0289C53.8218 19.9865 53.8279 19.9379 53.834 19.8955C53.3959 19.8348 52.9577 19.7742 52.5135 19.7196C52.4283 19.7136 52.3431 19.7621 52.2579 19.7863C52.3431 19.8409 52.4222 19.9379 52.5074 19.944C52.9456 19.9865 53.3837 19.9986 53.8218 20.0228V20.0289ZM45.3696 12.1937C45.3696 12.1937 45.3574 12.1391 45.3574 12.1149C44.682 12.2422 44.0065 12.3696 43.3371 12.4909C43.3371 12.5151 43.3493 12.5394 43.3493 12.5697C44.0491 12.5818 44.7245 12.4787 45.3696 12.1937ZM35.4021 13.4005C35.4082 13.1094 35.2926 12.9821 35.0979 12.976C34.9397 12.97 34.8179 13.0124 34.8119 13.2004C34.8058 13.4127 34.9579 13.6007 35.1465 13.5643C35.2561 13.5461 35.3474 13.4369 35.4021 13.4005ZM51.333 23.9586C51.6129 24.4256 51.9111 24.8743 52.3614 25.1897C52.1302 24.6863 51.8198 24.2497 51.333 23.9586ZM45.5826 12.9457V12.8729C44.9862 12.9457 44.3899 13.0185 43.7935 13.0912C44.4081 13.1943 45.0105 13.1943 45.5826 12.9518V12.9457ZM51.6494 23.1399C51.6494 23.1399 51.6068 23.2006 51.5825 23.2309C51.9719 23.5584 52.3675 23.8919 52.7569 24.2194L52.8299 24.1345C52.5013 23.7221 52.1484 23.3461 51.6494 23.1399ZM41.1708 16.1113C41.3473 16.2326 41.4507 16.3539 41.5664 16.3721C41.7428 16.4024 41.8767 16.2508 41.828 16.0992C41.7915 15.9718 41.6272 15.8748 41.5238 15.7656C41.4264 15.8566 41.3351 15.9536 41.1708 16.1113ZM49.6961 18.628C49.6961 18.6705 49.6961 18.719 49.6961 18.7614C49.8117 18.8403 49.9212 18.9737 50.0369 18.9798C50.1099 18.9858 50.2498 18.816 50.2681 18.7129C50.2924 18.5553 50.189 18.4097 50.0004 18.44C49.8908 18.4582 49.7995 18.5613 49.6961 18.628ZM48.5338 18.7736V18.6402C48.4304 18.5613 48.333 18.4461 48.2174 18.4158C48.0288 18.3733 47.9497 18.5067 47.9558 18.6887C47.9558 18.8524 48.0166 19.0161 48.2113 18.9798C48.3269 18.9616 48.4304 18.8463 48.5399 18.7736H48.5338ZM34.5502 12.9396C34.3737 12.8062 34.2825 12.6971 34.1668 12.6607C34.0269 12.6182 33.9113 12.7213 33.966 12.8669C34.0086 12.9821 34.1182 13.0912 34.2277 13.164C34.2581 13.1822 34.3859 13.0609 34.5563 12.9457L34.5502 12.9396ZM40.5684 15.517C40.7388 15.6444 40.8361 15.7414 40.9518 15.7838C40.9822 15.796 41.1221 15.6383 41.1343 15.5473C41.1526 15.3775 41.037 15.2562 40.8605 15.2805C40.7814 15.2926 40.7144 15.3957 40.5684 15.517ZM44.1586 13.7523V13.8372C44.6394 13.8675 45.114 13.916 45.5704 13.7462C45.5704 13.7219 45.5704 13.6977 45.5704 13.6734C45.1018 13.6977 44.6272 13.728 44.1586 13.7523ZM38.6759 14.8924C38.8159 15.0076 38.9011 15.1289 38.9923 15.1349C39.0593 15.1349 39.2114 14.9651 39.1932 14.9227C39.1506 14.8135 39.041 14.7226 38.9376 14.6619C38.9132 14.6437 38.7976 14.7771 38.6698 14.8924H38.6759ZM14.9865 9.56784C14.9865 9.56784 14.9743 9.50719 14.9622 9.47687C14.4206 9.59209 13.8729 9.70125 13.3313 9.81648C13.3374 9.8468 13.3435 9.88318 13.3496 9.91351C13.8912 9.79828 14.4388 9.68306 14.9865 9.56784ZM19.3191 24.6682C19.7816 24.6196 20.0493 24.3953 20.0858 24.0132C19.7938 24.2618 19.5564 24.462 19.3191 24.6682ZM44.7611 17.5546C44.6454 17.7184 44.5298 17.8093 44.542 17.876C44.5602 17.9609 44.6698 18.0458 44.7611 18.0944C44.7915 18.1126 44.9436 17.9973 44.9375 17.967C44.9132 17.8518 44.8462 17.7487 44.7611 17.5546ZM33.8991 14.2374C33.9904 13.916 33.9173 13.7341 33.6679 13.6128C33.5827 13.9342 33.6435 14.104 33.8991 14.2374ZM37.8301 15.2684C37.7936 15.2805 37.7571 15.2926 37.7206 15.3047C37.7692 15.5352 37.8118 15.7717 37.8727 16.0021C37.8849 16.0446 37.9457 16.0689 37.9822 16.1052C38.0187 16.0567 38.0918 15.9961 38.0796 15.9658C38.0066 15.7293 37.9153 15.4988 37.8301 15.2684ZM37.0451 14.9106C37.0086 14.9227 36.966 14.9409 36.9295 14.953C36.9721 15.1531 37.0086 15.3533 37.0634 15.5534C37.0755 15.6019 37.1486 15.6262 37.1972 15.6625C37.2277 15.608 37.2946 15.5473 37.2824 15.5109C37.2155 15.3047 37.1303 15.1107 37.0512 14.9106H37.0451ZM34.3798 13.8675C34.4528 14.0858 34.5319 14.3102 34.6293 14.5952C34.7997 14.2495 34.7206 14.013 34.3798 13.8675ZM36.2662 15.2138C36.4548 14.9288 36.3271 14.5831 36.0228 14.4436C36.108 14.7226 36.1871 14.9712 36.2662 15.2138ZM19.1731 24.1406C19.1426 24.0981 19.1061 24.0557 19.0757 24.0132C18.8627 24.1891 18.6437 24.371 18.4307 24.5469C18.4611 24.5833 18.4915 24.6196 18.522 24.656C18.741 24.4862 18.9601 24.3104 19.1792 24.1406H19.1731ZM39.9355 16.2569C39.9538 16.5237 39.9173 16.8087 40.112 17.0695C40.2459 16.8087 40.1911 16.554 39.9355 16.2569ZM45.3878 18.3369C45.3574 18.3369 45.3209 18.343 45.2905 18.3491C45.26 18.4218 45.1931 18.5067 45.2114 18.5674C45.2357 18.6583 45.3148 18.7311 45.3696 18.816C45.4243 18.7554 45.5278 18.6887 45.5217 18.6341C45.5156 18.5371 45.4365 18.44 45.3939 18.343L45.3878 18.3369ZM30.4427 13.3156C30.6253 13.0245 30.5158 12.7395 30.1628 12.5333C30.2663 12.8123 30.3393 13.0245 30.4427 13.3156ZM25.8485 12.3089C25.8363 12.6667 25.9215 12.7941 26.171 12.8183C26.1892 12.5818 26.1162 12.406 25.8485 12.3089ZM32.1831 13.6734C32.1831 13.6734 32.2379 13.6492 32.2622 13.637C32.177 13.4248 32.0857 13.2065 32.0005 12.9942C31.8849 13.3581 31.9397 13.5097 32.1831 13.6734ZM34.5076 11.9329C34.5076 11.9329 34.5685 11.9269 34.5989 11.9208C34.6232 11.8541 34.6902 11.7692 34.6658 11.7146C34.6293 11.6237 34.5441 11.557 34.4772 11.4781C34.4346 11.5448 34.3494 11.6176 34.3555 11.6782C34.3737 11.7692 34.4528 11.848 34.5015 11.9329H34.5076ZM28.1243 12.9093C28.1791 12.8851 28.2338 12.8608 28.2825 12.8305C28.1852 12.6425 28.0878 12.4484 27.9904 12.2544L27.8748 12.3089C27.96 12.5091 28.0391 12.7031 28.1243 12.9032V12.9093ZM42.3879 16.3903C42.3148 16.5298 42.2479 16.5965 42.254 16.651C42.2722 16.7359 42.3392 16.8087 42.3879 16.8876C42.4426 16.8269 42.54 16.7723 42.5461 16.7117C42.5461 16.6328 42.473 16.554 42.3879 16.3903ZM33.8991 11.3265C33.7774 11.2416 33.7105 11.1749 33.6313 11.1506C33.607 11.1446 33.5036 11.2659 33.5157 11.3023C33.5401 11.3872 33.6131 11.4539 33.6679 11.5266C33.7287 11.4721 33.7896 11.4235 33.8991 11.3265ZM31.2277 13.2974L31.3068 13.2671C31.3373 13.0306 31.3129 12.8183 30.9904 12.6607C31.0878 12.9154 31.1547 13.1034 31.2277 13.2974ZM44.0369 16.8997C43.9517 17.021 43.8726 17.0937 43.8848 17.1483C43.897 17.2211 43.97 17.2878 44.0248 17.3545C44.0734 17.2999 44.1647 17.2514 44.1647 17.1968C44.1647 17.1241 44.1039 17.0452 44.0369 16.9057V16.8997ZM17.5666 24.3346C17.9682 24.2982 18.1143 24.1891 18.1629 23.8798C17.9621 24.0314 17.7796 24.1709 17.5666 24.3346ZM38.6881 16.6025C38.7307 16.5965 38.7733 16.5904 38.8159 16.5843C38.7855 16.4024 38.755 16.2265 38.7246 16.0446C38.6881 16.0507 38.6516 16.0567 38.609 16.0628C38.6333 16.2447 38.6638 16.4206 38.6881 16.6025ZM39.2784 15.8505C39.2297 15.8627 39.181 15.8687 39.1262 15.8809C39.1688 16.0507 39.2114 16.2265 39.2479 16.3963C39.2844 16.3903 39.3209 16.3781 39.3635 16.3721L39.2784 15.8505ZM26.9377 13.0609C26.8403 12.879 26.7673 12.7334 26.6943 12.594C26.6456 12.9518 26.67 13.0063 26.9377 13.0609ZM46.1363 19.2951C46.1789 19.283 46.2276 19.2769 46.2702 19.2648C46.2397 19.1314 46.2093 18.9919 46.1789 18.8585C46.1302 18.8706 46.0815 18.8827 46.0329 18.8888C46.0633 19.0222 46.0998 19.1556 46.1302 19.2951H46.1363Z" fill="#514432"/>
</svg>
