<svg width="24" height="24" viewBox="0 0 24 24" fill="none" xmlns="http://www.w3.org/2000/svg">
<path d="M22.5 9C22.5 9.19891 22.421 9.38968 22.2804 9.53033C22.1397 9.67098 21.949 9.75 21.75 9.75H20.25V11.25C20.25 11.4489 20.171 11.6397 20.0304 11.7803C19.8897 11.921 19.699 12 19.5 12C19.3011 12 19.1104 11.921 18.9697 11.7803C18.8291 11.6397 18.75 11.4489 18.75 11.25V9.75H17.25C17.0511 9.75 16.8604 9.67098 16.7197 9.53033C16.5791 9.38968 16.5 9.19891 16.5 9C16.5 8.80109 16.5791 8.61032 16.7197 8.46967C16.8604 8.32902 17.0511 8.25 17.25 8.25H18.75V6.75C18.75 6.55109 18.8291 6.36032 18.9697 6.21967C19.1104 6.07902 19.3011 6 19.5 6C19.699 6 19.8897 6.07902 20.0304 6.21967C20.171 6.36032 20.25 6.55109 20.25 6.75V8.25H21.75C21.949 8.25 22.1397 8.32902 22.2804 8.46967C22.421 8.61032 22.5 8.80109 22.5 9ZM13.5 5.25H14.25V6C14.25 6.19891 14.3291 6.38968 14.4697 6.53033C14.6104 6.67098 14.8011 6.75 15 6.75C15.1989 6.75 15.3897 6.67098 15.5304 6.53033C15.671 6.38968 15.75 6.19891 15.75 6V5.25H16.5C16.699 5.25 16.8897 5.17098 17.0304 5.03033C17.171 4.88968 17.25 4.69891 17.25 4.5C17.25 4.30109 17.171 4.11032 17.0304 3.96967C16.8897 3.82902 16.699 3.75 16.5 3.75H15.75V3C15.75 2.80109 15.671 2.61032 15.5304 2.46967C15.3897 2.32902 15.1989 2.25 15 2.25C14.8011 2.25 14.6104 2.32902 14.4697 2.46967C14.3291 2.61032 14.25 2.80109 14.25 3V3.75H13.5C13.3011 3.75 13.1104 3.82902 12.9697 3.96967C12.8291 4.11032 12.75 4.30109 12.75 4.5C12.75 4.69891 12.8291 4.88968 12.9697 5.03033C13.1104 5.17098 13.3011 5.25 13.5 5.25ZM19.6069 14.0934C18.2766 14.3563 16.9021 14.2874 15.6047 13.8929C14.3074 13.4985 13.1272 12.7906 12.1683 11.8317C11.2095 10.8729 10.5016 9.69266 10.1071 8.3953C9.71264 7.09795 9.64377 5.72341 9.9066 4.39313C9.93235 4.26258 9.9229 4.12753 9.87922 4.00184C9.83555 3.87614 9.75922 3.76434 9.65807 3.67788C9.55692 3.59142 9.43459 3.53344 9.30363 3.50987C9.17267 3.4863 9.0378 3.49799 8.91285 3.54375C7.49266 4.06306 6.22622 4.93183 5.23046 6.06985C4.2347 7.20786 3.54173 8.57843 3.21555 10.055C2.88936 11.5315 2.94047 13.0665 3.36415 14.5181C3.78784 15.9696 4.57045 17.2911 5.6397 18.3603C6.70896 19.4296 8.03039 20.2122 9.48197 20.6359C10.9336 21.0596 12.4685 21.1107 13.9451 20.7845C15.4216 20.4583 16.7922 19.7653 17.9302 18.7696C19.0682 17.7738 19.937 16.5074 20.4563 15.0872C20.502 14.9622 20.5137 14.8274 20.4902 14.6964C20.4666 14.5654 20.4086 14.4431 20.3222 14.342C20.2357 14.2408 20.1239 14.1645 19.9982 14.1208C19.8725 14.0771 19.7375 14.0677 19.6069 14.0934Z" fill="#1C1812"/>
</svg>
